<?xml version="1.0" encoding="UTF-8"?>
<svg xmlns="http://www.w3.org/2000/svg" xmlns:xlink="http://www.w3.org/1999/xlink" width="194px" height="100px" viewBox="0 0 193 100" version="1.1">
<g id="surface1">
<path style=" stroke:none;fill-rule:nonzero;fill:rgb(98.823529%,41.568628%,9.803922%);fill-opacity:1;" d="M 12.769531 13.667969 C 12.9375 13.675781 13.105469 13.679688 13.273438 13.683594 C 13.328125 13.683594 13.386719 13.6875 13.441406 13.6875 C 16.203125 13.765625 19.09375 14.664062 21.203125 16.492188 C 21.234375 16.515625 21.261719 16.542969 21.292969 16.570312 C 21.8125 17.027344 22.3125 17.515625 22.722656 18.078125 C 22.769531 18.144531 22.820312 18.210938 22.871094 18.277344 C 24.96875 21.101562 25.148438 24.625 25.144531 28.007812 C 25.144531 28.214844 25.144531 28.417969 25.144531 28.625 C 25.144531 29.011719 25.140625 29.398438 25.140625 29.785156 C 25.140625 30.226562 25.140625 30.667969 25.140625 31.109375 C 25.140625 32.019531 25.140625 32.925781 25.140625 33.832031 C 25.160156 33.816406 25.183594 33.800781 25.207031 33.785156 C 25.308594 33.722656 25.410156 33.65625 25.511719 33.589844 C 25.5625 33.558594 25.5625 33.558594 25.617188 33.523438 C 25.652344 33.5 25.683594 33.480469 25.71875 33.457031 C 25.75 33.4375 25.78125 33.417969 25.8125 33.394531 C 25.898438 33.347656 25.96875 33.328125 26.0625 33.304688 C 26.105469 33.265625 26.144531 33.226562 26.183594 33.183594 C 26.210938 33.183594 26.234375 33.183594 26.261719 33.183594 C 26.289062 33.160156 26.316406 33.132812 26.34375 33.105469 C 26.488281 33.019531 26.636719 32.941406 26.785156 32.863281 C 26.84375 32.832031 26.84375 32.832031 26.898438 32.800781 C 26.933594 32.785156 26.96875 32.765625 27.007812 32.746094 C 27.039062 32.730469 27.070312 32.714844 27.101562 32.695312 C 27.1875 32.660156 27.1875 32.660156 27.308594 32.660156 C 27.320312 32.632812 27.335938 32.609375 27.347656 32.582031 C 27.414062 32.542969 27.414062 32.542969 27.5 32.5 C 27.535156 32.484375 27.566406 32.46875 27.597656 32.453125 C 27.632812 32.4375 27.667969 32.421875 27.703125 32.40625 C 27.738281 32.390625 27.769531 32.375 27.808594 32.355469 C 28.066406 32.238281 28.328125 32.125 28.59375 32.015625 C 28.675781 31.980469 28.757812 31.949219 28.839844 31.914062 C 29.019531 31.835938 29.199219 31.765625 29.378906 31.691406 C 29.507812 31.640625 29.628906 31.582031 29.753906 31.527344 C 29.835938 31.492188 29.835938 31.492188 29.933594 31.472656 C 30.054688 31.449219 30.160156 31.40625 30.273438 31.359375 C 30.769531 31.167969 31.273438 31.015625 31.785156 30.875 C 31.859375 30.855469 31.933594 30.832031 32.007812 30.808594 C 32.375 30.703125 32.742188 30.613281 33.117188 30.527344 C 33.144531 30.523438 33.175781 30.515625 33.207031 30.507812 C 34.503906 30.21875 35.824219 30.015625 37.144531 29.917969 C 37.195312 29.914062 37.242188 29.914062 37.289062 29.910156 C 37.90625 29.867188 38.527344 29.871094 39.144531 29.867188 C 39.1875 29.867188 39.1875 29.867188 39.234375 29.867188 C 40.175781 29.867188 41.109375 29.894531 42.046875 30 C 42.105469 30.007812 42.164062 30.011719 42.222656 30.019531 C 42.640625 30.0625 43.058594 30.121094 43.472656 30.195312 C 43.503906 30.199219 43.535156 30.203125 43.566406 30.210938 C 44.3125 30.335938 45.050781 30.464844 45.777344 30.679688 C 45.933594 30.722656 46.089844 30.761719 46.25 30.800781 C 46.910156 30.960938 47.554688 31.179688 48.191406 31.410156 C 48.230469 31.425781 48.269531 31.441406 48.3125 31.453125 C 48.539062 31.535156 48.761719 31.625 48.980469 31.71875 C 49.128906 31.78125 49.277344 31.835938 49.425781 31.890625 C 49.953125 32.085938 50.457031 32.324219 50.960938 32.582031 C 51.007812 32.605469 51.058594 32.628906 51.105469 32.652344 C 51.359375 32.777344 51.609375 32.910156 51.859375 33.046875 C 51.929688 33.085938 52 33.125 52.070312 33.160156 C 52.3125 33.292969 52.550781 33.433594 52.785156 33.574219 C 52.9375 33.667969 53.089844 33.753906 53.246094 33.839844 C 53.40625 33.925781 53.546875 34.019531 53.6875 34.132812 C 53.769531 34.191406 53.851562 34.238281 53.941406 34.285156 C 54.128906 34.390625 54.296875 34.511719 54.464844 34.644531 C 54.492188 34.667969 54.523438 34.691406 54.554688 34.714844 C 54.613281 34.761719 54.671875 34.804688 54.730469 34.851562 C 54.855469 34.949219 54.976562 35.046875 55.101562 35.140625 C 55.144531 35.171875 55.183594 35.203125 55.226562 35.238281 C 55.453125 35.417969 55.453125 35.417969 55.699219 35.566406 C 55.699219 35.589844 55.699219 35.617188 55.699219 35.644531 C 55.722656 35.648438 55.746094 35.652344 55.769531 35.65625 C 55.875 35.691406 55.929688 35.734375 56.011719 35.8125 C 56.039062 35.835938 56.066406 35.863281 56.097656 35.890625 C 56.125 35.914062 56.152344 35.941406 56.179688 35.96875 C 56.230469 36.011719 56.28125 36.054688 56.328125 36.097656 C 56.355469 36.121094 56.382812 36.144531 56.410156 36.167969 C 56.480469 36.230469 56.554688 36.292969 56.625 36.355469 C 56.863281 36.550781 57.089844 36.753906 57.304688 36.976562 C 57.378906 37.050781 57.457031 37.121094 57.539062 37.1875 C 57.652344 37.28125 57.738281 37.382812 57.828125 37.5 C 57.867188 37.527344 57.90625 37.554688 57.949219 37.582031 C 58.015625 37.648438 58.082031 37.714844 58.148438 37.78125 C 58.191406 37.816406 58.234375 37.851562 58.277344 37.886719 C 58.390625 37.984375 58.390625 37.984375 58.421875 38.054688 C 58.496094 38.191406 58.605469 38.289062 58.71875 38.398438 C 58.914062 38.589844 59.097656 38.78125 59.273438 38.992188 C 59.417969 38.929688 59.511719 38.84375 59.621094 38.734375 C 59.652344 38.703125 59.683594 38.671875 59.714844 38.640625 C 59.796875 38.554688 59.796875 38.554688 59.835938 38.464844 C 59.886719 38.363281 59.957031 38.300781 60.042969 38.222656 C 60.09375 38.171875 60.148438 38.117188 60.195312 38.066406 C 60.195312 38.039062 60.195312 38.011719 60.195312 37.984375 C 60.238281 37.96875 60.277344 37.957031 60.316406 37.945312 C 60.371094 37.878906 60.425781 37.808594 60.476562 37.742188 C 60.558594 37.65625 60.636719 37.582031 60.730469 37.511719 C 60.824219 37.429688 60.898438 37.355469 60.976562 37.261719 C 61.085938 37.132812 61.199219 37.023438 61.328125 36.917969 C 61.410156 36.847656 61.484375 36.769531 61.558594 36.695312 C 61.683594 36.566406 61.8125 36.460938 61.957031 36.359375 C 62.105469 36.242188 62.242188 36.109375 62.382812 35.980469 C 62.480469 35.894531 62.574219 35.832031 62.6875 35.765625 C 62.746094 35.71875 62.804688 35.667969 62.863281 35.621094 C 62.929688 35.5625 62.996094 35.511719 63.066406 35.460938 C 63.195312 35.363281 63.324219 35.261719 63.449219 35.160156 C 63.933594 34.765625 64.429688 34.375 64.976562 34.074219 C 65.019531 34.046875 65.066406 34.019531 65.113281 33.996094 C 65.132812 33.980469 65.15625 33.96875 65.179688 33.957031 C 65.488281 33.78125 65.789062 33.597656 66.085938 33.402344 C 66.171875 33.351562 66.242188 33.328125 66.339844 33.304688 C 66.382812 33.265625 66.421875 33.226562 66.460938 33.183594 C 66.488281 33.183594 66.515625 33.183594 66.542969 33.183594 C 66.570312 33.160156 66.59375 33.132812 66.621094 33.105469 C 66.765625 33.019531 66.914062 32.941406 67.0625 32.863281 C 67.101562 32.84375 67.140625 32.824219 67.179688 32.800781 C 67.214844 32.785156 67.25 32.765625 67.285156 32.746094 C 67.316406 32.730469 67.347656 32.714844 67.382812 32.695312 C 67.464844 32.660156 67.464844 32.660156 67.585938 32.660156 C 67.597656 32.632812 67.613281 32.609375 67.625 32.582031 C 67.691406 32.542969 67.691406 32.542969 67.78125 32.5 C 67.828125 32.476562 67.828125 32.476562 67.875 32.453125 C 67.910156 32.4375 67.945312 32.421875 67.980469 32.40625 C 68.015625 32.390625 68.050781 32.375 68.085938 32.355469 C 68.34375 32.238281 68.605469 32.125 68.871094 32.015625 C 68.953125 31.980469 69.035156 31.949219 69.117188 31.914062 C 69.296875 31.835938 69.476562 31.765625 69.660156 31.691406 C 69.785156 31.640625 69.910156 31.582031 70.03125 31.527344 C 70.117188 31.492188 70.117188 31.492188 70.210938 31.472656 C 70.332031 31.449219 70.4375 31.40625 70.554688 31.359375 C 71.046875 31.167969 71.550781 31.015625 72.0625 30.875 C 72.136719 30.855469 72.214844 30.832031 72.289062 30.808594 C 72.652344 30.703125 73.023438 30.613281 73.394531 30.527344 C 73.425781 30.523438 73.457031 30.515625 73.488281 30.507812 C 74.78125 30.21875 76.101562 30.015625 77.425781 29.917969 C 77.472656 29.914062 77.519531 29.914062 77.566406 29.910156 C 78.183594 29.867188 78.804688 29.871094 79.421875 29.867188 C 79.464844 29.867188 79.464844 29.867188 79.511719 29.867188 C 80.453125 29.867188 81.386719 29.894531 82.324219 30 C 82.382812 30.007812 82.441406 30.011719 82.5 30.019531 C 82.917969 30.0625 83.335938 30.121094 83.753906 30.195312 C 83.785156 30.199219 83.8125 30.203125 83.847656 30.210938 C 84.589844 30.335938 85.332031 30.464844 86.054688 30.679688 C 86.210938 30.722656 86.371094 30.761719 86.527344 30.800781 C 87.1875 30.960938 87.832031 31.179688 88.46875 31.410156 C 88.507812 31.425781 88.550781 31.441406 88.589844 31.453125 C 88.816406 31.535156 89.039062 31.625 89.261719 31.71875 C 89.40625 31.78125 89.554688 31.835938 89.703125 31.890625 C 90.230469 32.085938 90.738281 32.324219 91.238281 32.582031 C 91.289062 32.605469 91.335938 32.628906 91.382812 32.652344 C 91.636719 32.777344 91.890625 32.910156 92.136719 33.046875 C 92.207031 33.085938 92.277344 33.125 92.347656 33.160156 C 92.589844 33.292969 92.828125 33.433594 93.0625 33.574219 C 93.214844 33.667969 93.367188 33.753906 93.527344 33.839844 C 93.683594 33.925781 93.824219 34.019531 93.96875 34.132812 C 94.046875 34.191406 94.128906 34.238281 94.21875 34.285156 C 94.410156 34.390625 94.574219 34.511719 94.742188 34.644531 C 94.773438 34.667969 94.800781 34.691406 94.832031 34.714844 C 94.890625 34.761719 94.949219 34.804688 95.011719 34.851562 C 95.132812 34.949219 95.257812 35.046875 95.378906 35.140625 C 95.421875 35.171875 95.464844 35.203125 95.507812 35.238281 C 95.730469 35.417969 95.730469 35.417969 95.976562 35.566406 C 95.976562 35.589844 95.976562 35.617188 95.976562 35.644531 C 96 35.648438 96.023438 35.652344 96.050781 35.65625 C 96.15625 35.691406 96.207031 35.734375 96.289062 35.8125 C 96.332031 35.851562 96.332031 35.851562 96.375 35.890625 C 96.402344 35.914062 96.429688 35.941406 96.460938 35.96875 C 96.507812 36.011719 96.558594 36.054688 96.609375 36.097656 C 96.632812 36.121094 96.660156 36.144531 96.6875 36.167969 C 96.757812 36.230469 96.832031 36.292969 96.90625 36.355469 C 97.140625 36.550781 97.367188 36.753906 97.585938 36.976562 C 97.660156 37.050781 97.738281 37.121094 97.816406 37.1875 C 97.929688 37.28125 98.015625 37.382812 98.105469 37.5 C 98.144531 37.527344 98.1875 37.554688 98.226562 37.582031 C 98.347656 37.695312 98.453125 37.808594 98.546875 37.945312 C 98.488281 38.078125 98.417969 38.164062 98.316406 38.269531 C 98.285156 38.296875 98.257812 38.328125 98.226562 38.359375 C 98.195312 38.390625 98.164062 38.421875 98.132812 38.453125 C 98.101562 38.484375 98.070312 38.515625 98.039062 38.546875 C 98.007812 38.578125 97.976562 38.605469 97.945312 38.636719 C 97.921875 38.664062 97.894531 38.691406 97.863281 38.722656 C 97.785156 38.789062 97.785156 38.789062 97.707031 38.828125 C 97.613281 38.875 97.554688 38.929688 97.480469 39.007812 C 97.453125 39.035156 97.421875 39.0625 97.394531 39.089844 C 97.363281 39.121094 97.332031 39.152344 97.300781 39.183594 C 97.269531 39.21875 97.234375 39.25 97.203125 39.285156 C 97.113281 39.375 97.019531 39.46875 96.929688 39.558594 C 96.832031 39.65625 96.734375 39.753906 96.636719 39.855469 C 96.464844 40.023438 96.296875 40.195312 96.128906 40.367188 C 95.882812 40.613281 95.636719 40.859375 95.390625 41.105469 C 94.992188 41.503906 94.597656 41.90625 94.199219 42.304688 C 93.8125 42.695312 93.425781 43.082031 93.039062 43.472656 C 93.015625 43.496094 92.992188 43.519531 92.964844 43.542969 C 92.847656 43.664062 92.726562 43.785156 92.609375 43.902344 C 91.617188 44.902344 90.625 45.898438 89.632812 46.894531 C 89.464844 46.820312 89.414062 46.726562 89.3125 46.574219 C 89.246094 46.519531 89.179688 46.464844 89.109375 46.410156 C 89.085938 46.378906 89.0625 46.347656 89.035156 46.316406 C 88.945312 46.203125 88.847656 46.117188 88.738281 46.027344 C 88.667969 45.96875 88.667969 45.96875 88.5625 45.855469 C 88.476562 45.773438 88.414062 45.734375 88.308594 45.683594 C 88.265625 45.644531 88.226562 45.605469 88.1875 45.566406 C 88.113281 45.5 88.039062 45.441406 87.964844 45.378906 C 87.929688 45.347656 87.890625 45.3125 87.851562 45.28125 C 87.75 45.195312 87.75 45.195312 87.625 45.160156 C 87.570312 45.109375 87.519531 45.054688 87.464844 45 C 87.382812 44.941406 87.300781 44.882812 87.214844 44.824219 C 87.191406 44.808594 87.167969 44.792969 87.144531 44.777344 C 87.101562 44.742188 87.054688 44.710938 87.007812 44.679688 C 86.949219 44.640625 86.894531 44.601562 86.835938 44.5625 C 86.664062 44.445312 86.496094 44.351562 86.300781 44.273438 C 86.300781 44.246094 86.300781 44.222656 86.300781 44.195312 C 86.179688 44.152344 86.0625 44.113281 85.9375 44.074219 C 85.9375 44.046875 85.9375 44.019531 85.9375 43.992188 C 85.910156 43.988281 85.882812 43.984375 85.851562 43.980469 C 85.71875 43.949219 85.613281 43.894531 85.488281 43.835938 C 85.441406 43.808594 85.394531 43.785156 85.34375 43.761719 C 85.320312 43.75 85.292969 43.738281 85.269531 43.722656 C 84.792969 43.484375 84.316406 43.269531 83.808594 43.105469 C 83.777344 43.09375 83.742188 43.082031 83.707031 43.070312 C 81.664062 42.398438 79.347656 42.1875 77.222656 42.539062 C 77.183594 42.546875 77.183594 42.546875 77.140625 42.554688 C 75.738281 42.789062 74.4375 43.183594 73.160156 43.820312 C 73.117188 43.84375 73.074219 43.867188 73.027344 43.886719 C 72.988281 43.910156 72.949219 43.929688 72.90625 43.949219 C 72.808594 43.992188 72.808594 43.992188 72.6875 43.992188 C 72.6875 44.019531 72.6875 44.046875 72.6875 44.074219 C 72.507812 44.132812 72.507812 44.132812 72.324219 44.195312 C 72.324219 44.21875 72.324219 44.246094 72.324219 44.273438 C 72.304688 44.285156 72.28125 44.292969 72.257812 44.304688 C 71.816406 44.511719 71.308594 44.8125 70.960938 45.160156 C 70.910156 45.199219 70.859375 45.238281 70.804688 45.277344 C 70.582031 45.441406 70.582031 45.441406 70.378906 45.628906 C 70.316406 45.683594 70.316406 45.683594 70.222656 45.742188 C 70.101562 45.816406 70.015625 45.90625 69.914062 46.007812 C 69.832031 46.082031 69.75 46.152344 69.664062 46.222656 C 69.585938 46.292969 69.585938 46.292969 69.515625 46.410156 C 69.46875 46.449219 69.425781 46.488281 69.378906 46.523438 C 69.246094 46.636719 69.167969 46.75 69.070312 46.894531 C 69.019531 46.949219 68.96875 47 68.914062 47.054688 C 68.789062 47.171875 68.691406 47.292969 68.597656 47.4375 C 68.550781 47.5 68.550781 47.5 68.449219 47.597656 C 68.339844 47.710938 68.269531 47.824219 68.191406 47.960938 C 68.171875 47.992188 68.171875 47.992188 68.148438 48.023438 C 68.121094 48.023438 68.09375 48.023438 68.066406 48.023438 C 68.058594 48.050781 68.046875 48.082031 68.035156 48.109375 C 67.984375 48.234375 67.917969 48.34375 67.847656 48.460938 C 67.808594 48.519531 67.808594 48.519531 67.773438 48.578125 C 67.75 48.609375 67.730469 48.640625 67.707031 48.667969 C 67.679688 48.667969 67.652344 48.667969 67.625 48.667969 C 67.613281 48.710938 67.613281 48.710938 67.597656 48.75 C 67.53125 48.902344 67.449219 49.039062 67.363281 49.179688 C 67.15625 49.523438 66.988281 49.875 66.820312 50.238281 C 66.773438 50.34375 66.71875 50.445312 66.664062 50.550781 C 65.980469 51.90625 65.609375 53.5625 65.601562 55.078125 C 65.601562 55.152344 65.601562 55.226562 65.601562 55.296875 C 65.601562 55.449219 65.601562 55.605469 65.601562 55.757812 C 65.601562 55.910156 65.601562 56.066406 65.597656 56.21875 C 65.582031 57.820312 65.800781 59.304688 66.382812 60.804688 C 66.394531 60.835938 66.40625 60.867188 66.417969 60.898438 C 66.734375 61.710938 67.136719 62.484375 67.585938 63.234375 C 67.628906 63.308594 67.667969 63.386719 67.707031 63.46875 C 67.734375 63.46875 67.757812 63.46875 67.785156 63.46875 C 67.800781 63.535156 67.8125 63.601562 67.828125 63.667969 C 67.855469 63.667969 67.878906 63.667969 67.90625 63.667969 C 67.96875 63.746094 67.96875 63.746094 68.03125 63.847656 C 68.054688 63.878906 68.078125 63.910156 68.097656 63.945312 C 68.148438 64.03125 68.148438 64.03125 68.148438 64.113281 C 68.175781 64.113281 68.203125 64.113281 68.230469 64.113281 C 68.230469 64.152344 68.230469 64.191406 68.230469 64.234375 C 68.253906 64.234375 68.28125 64.234375 68.308594 64.234375 C 68.308594 64.273438 68.308594 64.3125 68.308594 64.355469 C 68.347656 64.367188 68.386719 64.382812 68.429688 64.394531 C 68.476562 64.453125 68.476562 64.453125 68.523438 64.527344 C 68.613281 64.660156 68.71875 64.765625 68.832031 64.878906 C 68.933594 64.996094 69.03125 65.117188 69.128906 65.234375 C 69.261719 65.390625 69.398438 65.515625 69.554688 65.644531 C 69.597656 65.695312 69.640625 65.746094 69.683594 65.796875 C 69.996094 66.15625 70.363281 66.429688 70.75 66.707031 C 70.796875 66.742188 70.796875 66.742188 70.847656 66.777344 C 70.875 66.796875 70.90625 66.820312 70.9375 66.839844 C 70.96875 66.867188 70.96875 66.867188 71 66.894531 C 71 66.921875 71 66.949219 71 66.976562 C 71.027344 66.988281 71.058594 66.996094 71.089844 67.007812 C 71.199219 67.054688 71.292969 67.109375 71.394531 67.175781 C 71.425781 67.199219 71.457031 67.21875 71.488281 67.242188 C 71.511719 67.257812 71.539062 67.277344 71.5625 67.296875 C 71.5625 67.324219 71.5625 67.351562 71.5625 67.378906 C 71.628906 67.390625 71.695312 67.40625 71.761719 67.417969 C 71.761719 67.445312 71.761719 67.472656 71.761719 67.5 C 71.792969 67.511719 71.820312 67.523438 71.851562 67.535156 C 71.960938 67.578125 72.054688 67.628906 72.15625 67.691406 C 72.625 67.964844 73.09375 68.210938 73.589844 68.425781 C 73.695312 68.46875 73.796875 68.515625 73.902344 68.5625 C 74.359375 68.765625 74.816406 68.933594 75.296875 69.074219 C 75.332031 69.082031 75.367188 69.09375 75.402344 69.105469 C 76.222656 69.34375 77.054688 69.5 77.90625 69.597656 C 77.941406 69.601562 77.972656 69.605469 78.007812 69.609375 C 78.429688 69.652344 78.851562 69.648438 79.273438 69.648438 C 79.3125 69.648438 79.355469 69.648438 79.394531 69.648438 C 80.058594 69.648438 80.707031 69.617188 81.359375 69.515625 C 81.417969 69.507812 81.417969 69.507812 81.480469 69.496094 C 81.734375 69.457031 81.988281 69.40625 82.242188 69.355469 C 82.292969 69.34375 82.292969 69.34375 82.34375 69.335938 C 83.230469 69.152344 84.109375 68.859375 84.925781 68.46875 C 85.023438 68.421875 85.125 68.378906 85.222656 68.335938 C 85.671875 68.140625 86.089844 67.921875 86.503906 67.664062 C 86.539062 67.644531 86.574219 67.621094 86.613281 67.601562 C 86.644531 67.582031 86.671875 67.5625 86.707031 67.542969 C 86.78125 67.5 86.78125 67.5 86.863281 67.5 C 86.863281 67.472656 86.863281 67.445312 86.863281 67.417969 C 86.929688 67.40625 86.996094 67.394531 87.0625 67.378906 C 87.0625 67.351562 87.0625 67.324219 87.0625 67.296875 C 87.140625 67.238281 87.21875 67.183594 87.296875 67.132812 C 87.34375 67.101562 87.386719 67.074219 87.429688 67.042969 C 87.542969 66.976562 87.542969 66.976562 87.625 66.976562 C 87.625 66.949219 87.625 66.921875 87.625 66.894531 C 87.71875 66.820312 87.8125 66.75 87.910156 66.679688 C 88.136719 66.511719 88.359375 66.339844 88.574219 66.15625 C 88.597656 66.136719 88.617188 66.117188 88.640625 66.101562 C 88.78125 65.980469 88.898438 65.851562 89.015625 65.710938 C 89.082031 65.628906 89.15625 65.5625 89.238281 65.492188 C 89.261719 65.472656 89.289062 65.449219 89.316406 65.425781 C 89.390625 65.363281 89.472656 65.300781 89.550781 65.242188 C 92.507812 68.210938 95.464844 71.175781 98.507812 74.234375 C 98.4375 74.378906 98.414062 74.417969 98.296875 74.507812 C 98.191406 74.59375 98.105469 74.683594 98.019531 74.785156 C 97.933594 74.886719 97.859375 74.972656 97.746094 75.039062 C 97.71875 75.039062 97.691406 75.039062 97.664062 75.039062 C 97.652344 75.0625 97.644531 75.085938 97.632812 75.113281 C 97.488281 75.378906 97.207031 75.574219 96.96875 75.757812 C 96.804688 75.894531 96.648438 76.042969 96.496094 76.1875 C 96.382812 76.289062 96.265625 76.371094 96.136719 76.453125 C 96.113281 76.476562 96.085938 76.503906 96.058594 76.53125 C 96.015625 76.566406 95.96875 76.601562 95.925781 76.632812 C 95.78125 76.742188 95.636719 76.851562 95.496094 76.960938 C 95.425781 77.011719 95.359375 77.066406 95.289062 77.117188 C 95.238281 77.160156 95.183594 77.199219 95.132812 77.242188 C 95.042969 77.308594 94.957031 77.375 94.871094 77.441406 C 94.84375 77.464844 94.816406 77.484375 94.789062 77.507812 C 94.761719 77.527344 94.738281 77.546875 94.710938 77.566406 C 94.6875 77.582031 94.664062 77.601562 94.640625 77.617188 C 94.566406 77.664062 94.5 77.683594 94.410156 77.703125 C 94.410156 77.726562 94.410156 77.753906 94.410156 77.78125 C 94.378906 77.796875 94.34375 77.8125 94.308594 77.832031 C 94.15625 77.910156 94.011719 78 93.867188 78.09375 C 93.808594 78.128906 93.753906 78.164062 93.695312 78.199219 C 93.667969 78.21875 93.640625 78.234375 93.609375 78.253906 C 93.449219 78.355469 93.285156 78.457031 93.121094 78.558594 C 93.019531 78.621094 92.921875 78.683594 92.820312 78.75 C 92.683594 78.832031 92.683594 78.832031 92.566406 78.832031 C 92.550781 78.855469 92.539062 78.882812 92.523438 78.910156 C 92.457031 78.953125 92.390625 78.988281 92.324219 79.023438 C 92.144531 79.121094 91.96875 79.21875 91.796875 79.320312 C 91.722656 79.355469 91.722656 79.355469 91.601562 79.355469 C 91.601562 79.382812 91.601562 79.40625 91.601562 79.433594 C 91.578125 79.445312 91.554688 79.453125 91.53125 79.460938 C 91.296875 79.554688 91.074219 79.65625 90.847656 79.773438 C 90.476562 79.960938 90.101562 80.132812 89.714844 80.28125 C 89.648438 80.308594 89.582031 80.335938 89.515625 80.359375 C 89.484375 80.375 89.453125 80.386719 89.417969 80.402344 C 89.261719 80.464844 89.109375 80.527344 88.957031 80.59375 C 88.796875 80.660156 88.632812 80.710938 88.46875 80.765625 C 88.421875 80.78125 88.375 80.796875 88.324219 80.8125 C 87.628906 81.042969 86.933594 81.269531 86.21875 81.453125 C 86.148438 81.46875 86.148438 81.46875 86.074219 81.488281 C 84.8125 81.816406 83.539062 82.046875 82.242188 82.175781 C 82.214844 82.179688 82.183594 82.183594 82.152344 82.1875 C 80.46875 82.351562 78.75 82.375 77.0625 82.21875 C 76.992188 82.210938 76.992188 82.210938 76.921875 82.207031 C 75.824219 82.105469 74.730469 81.929688 73.648438 81.695312 C 73.601562 81.683594 73.554688 81.671875 73.503906 81.660156 C 72.917969 81.53125 72.339844 81.386719 71.769531 81.199219 C 71.515625 81.113281 71.257812 81.039062 70.996094 80.96875 C 70.804688 80.914062 70.621094 80.847656 70.4375 80.765625 C 70.332031 80.726562 70.226562 80.6875 70.125 80.648438 C 69.878906 80.554688 69.636719 80.460938 69.394531 80.363281 C 69.328125 80.335938 69.261719 80.3125 69.199219 80.285156 C 67.917969 79.769531 67.917969 79.769531 67.507812 79.519531 C 67.417969 79.46875 67.417969 79.46875 67.296875 79.421875 C 67.121094 79.347656 66.960938 79.25 66.796875 79.152344 C 66.585938 79.019531 66.585938 79.019531 66.359375 78.910156 C 66.207031 78.847656 66.070312 78.757812 65.933594 78.671875 C 65.867188 78.632812 65.804688 78.59375 65.738281 78.550781 C 65.707031 78.53125 65.671875 78.511719 65.640625 78.488281 C 65.539062 78.429688 65.4375 78.367188 65.339844 78.304688 C 65.304688 78.285156 65.273438 78.265625 65.242188 78.246094 C 65.179688 78.207031 65.117188 78.171875 65.058594 78.132812 C 64.929688 78.054688 64.804688 77.976562 64.679688 77.894531 C 64.578125 77.816406 64.578125 77.816406 64.453125 77.78125 C 64.378906 77.71875 64.335938 77.667969 64.292969 77.582031 C 64.269531 77.574219 64.25 77.570312 64.226562 77.566406 C 64.089844 77.527344 64.003906 77.449219 63.898438 77.363281 C 63.875 77.347656 63.851562 77.328125 63.828125 77.308594 C 63.78125 77.273438 63.734375 77.234375 63.683594 77.195312 C 63.609375 77.136719 63.535156 77.078125 63.457031 77.015625 C 63.085938 76.726562 63.085938 76.726562 62.945312 76.609375 C 62.851562 76.53125 62.851562 76.53125 62.746094 76.472656 C 62.628906 76.402344 62.535156 76.316406 62.433594 76.21875 C 62.394531 76.183594 62.355469 76.148438 62.316406 76.109375 C 62.28125 76.078125 62.242188 76.042969 62.203125 76.007812 C 62.035156 75.855469 61.859375 75.707031 61.679688 75.566406 C 61.511719 75.429688 61.339844 75.289062 61.199219 75.121094 C 61.199219 75.09375 61.199219 75.066406 61.199219 75.039062 C 61.164062 75.035156 61.164062 75.035156 61.128906 75.03125 C 61.011719 74.988281 60.964844 74.929688 60.886719 74.832031 C 60.789062 74.714844 60.695312 74.609375 60.574219 74.511719 C 60.445312 74.40625 60.339844 74.285156 60.230469 74.15625 C 60.125 74.035156 60.011719 73.925781 59.894531 73.816406 C 59.835938 73.75 59.835938 73.75 59.835938 73.667969 C 59.808594 73.667969 59.78125 73.667969 59.753906 73.667969 C 59.742188 73.617188 59.730469 73.5625 59.714844 73.507812 C 59.6875 73.507812 59.664062 73.507812 59.636719 73.507812 C 59.558594 73.425781 59.492188 73.34375 59.425781 73.257812 C 59.355469 73.171875 59.355469 73.171875 59.234375 73.183594 C 59.207031 73.226562 59.179688 73.265625 59.152344 73.304688 C 59.125 73.304688 59.101562 73.304688 59.074219 73.304688 C 59.0625 73.328125 59.054688 73.347656 59.046875 73.371094 C 58.96875 73.507812 58.863281 73.613281 58.757812 73.726562 C 58.613281 73.878906 58.476562 74.03125 58.351562 74.195312 C 58.242188 74.308594 58.128906 74.410156 58.011719 74.511719 C 57.886719 74.617188 57.785156 74.730469 57.679688 74.855469 C 57.617188 74.929688 57.550781 74.988281 57.464844 75.039062 C 57.441406 75.039062 57.414062 75.039062 57.386719 75.039062 C 57.375 75.0625 57.367188 75.085938 57.355469 75.113281 C 57.207031 75.378906 56.929688 75.574219 56.691406 75.757812 C 56.527344 75.894531 56.371094 76.042969 56.214844 76.1875 C 56.101562 76.289062 55.984375 76.371094 55.859375 76.453125 C 55.832031 76.476562 55.808594 76.503906 55.78125 76.53125 C 55.734375 76.566406 55.691406 76.601562 55.648438 76.632812 C 55.503906 76.742188 55.359375 76.851562 55.21875 76.960938 C 55.148438 77.011719 55.082031 77.066406 55.011719 77.117188 C 54.957031 77.160156 54.90625 77.199219 54.851562 77.242188 C 54.765625 77.308594 54.679688 77.375 54.59375 77.441406 C 54.566406 77.464844 54.539062 77.484375 54.511719 77.507812 C 54.484375 77.527344 54.457031 77.546875 54.433594 77.566406 C 54.410156 77.582031 54.386719 77.601562 54.363281 77.617188 C 54.285156 77.664062 54.21875 77.683594 54.132812 77.703125 C 54.132812 77.726562 54.132812 77.753906 54.132812 77.78125 C 54.101562 77.796875 54.066406 77.8125 54.03125 77.832031 C 53.878906 77.910156 53.734375 78 53.589844 78.09375 C 53.53125 78.128906 53.476562 78.164062 53.417969 78.199219 C 53.390625 78.21875 53.359375 78.234375 53.332031 78.253906 C 53.167969 78.355469 53.007812 78.457031 52.84375 78.558594 C 52.742188 78.621094 52.640625 78.683594 52.542969 78.75 C 52.40625 78.832031 52.40625 78.832031 52.285156 78.832031 C 52.273438 78.855469 52.257812 78.882812 52.246094 78.910156 C 52.179688 78.953125 52.113281 78.988281 52.046875 79.023438 C 51.867188 79.121094 51.691406 79.21875 51.519531 79.320312 C 51.441406 79.355469 51.441406 79.355469 51.320312 79.355469 C 51.320312 79.382812 51.320312 79.40625 51.320312 79.433594 C 51.296875 79.445312 51.273438 79.453125 51.25 79.460938 C 51.015625 79.554688 50.792969 79.65625 50.570312 79.773438 C 50.199219 79.960938 49.824219 80.132812 49.433594 80.28125 C 49.371094 80.308594 49.304688 80.335938 49.238281 80.359375 C 49.207031 80.375 49.171875 80.386719 49.140625 80.402344 C 48.984375 80.464844 48.832031 80.527344 48.679688 80.59375 C 48.515625 80.660156 48.355469 80.710938 48.191406 80.765625 C 48.144531 80.78125 48.09375 80.796875 48.046875 80.8125 C 47.351562 81.042969 46.652344 81.269531 45.941406 81.453125 C 45.894531 81.464844 45.847656 81.476562 45.796875 81.488281 C 44.535156 81.816406 43.261719 82.046875 41.964844 82.175781 C 41.933594 82.179688 41.90625 82.183594 41.875 82.1875 C 40.1875 82.351562 38.472656 82.375 36.785156 82.21875 C 36.714844 82.210938 36.714844 82.210938 36.644531 82.207031 C 35.542969 82.105469 34.449219 81.929688 33.371094 81.695312 C 33.324219 81.683594 33.273438 81.671875 33.226562 81.660156 C 32.636719 81.53125 32.0625 81.386719 31.492188 81.199219 C 31.238281 81.113281 30.980469 81.039062 30.71875 80.96875 C 30.523438 80.914062 30.34375 80.847656 30.160156 80.765625 C 30.054688 80.726562 29.949219 80.6875 29.84375 80.648438 C 29.601562 80.554688 29.355469 80.460938 29.113281 80.363281 C 29.050781 80.335938 28.984375 80.3125 28.917969 80.285156 C 27.640625 79.769531 27.640625 79.769531 27.226562 79.519531 C 27.140625 79.46875 27.140625 79.46875 27.019531 79.421875 C 26.84375 79.347656 26.683594 79.25 26.519531 79.152344 C 26.308594 79.019531 26.308594 79.019531 26.082031 78.910156 C 25.929688 78.847656 25.792969 78.757812 25.652344 78.671875 C 25.589844 78.632812 25.523438 78.59375 25.460938 78.550781 C 25.425781 78.53125 25.394531 78.511719 25.359375 78.488281 C 25.261719 78.429688 25.160156 78.367188 25.058594 78.304688 C 25.027344 78.285156 24.996094 78.265625 24.960938 78.246094 C 24.902344 78.207031 24.839844 78.171875 24.777344 78.132812 C 24.652344 78.054688 24.527344 77.976562 24.402344 77.894531 C 24.296875 77.816406 24.296875 77.816406 24.175781 77.78125 C 24.101562 77.71875 24.058594 77.667969 24.015625 77.582031 C 23.980469 77.574219 23.980469 77.574219 23.945312 77.566406 C 23.8125 77.527344 23.726562 77.449219 23.617188 77.363281 C 23.59375 77.347656 23.574219 77.328125 23.550781 77.308594 C 23.5 77.273438 23.453125 77.234375 23.40625 77.195312 C 23.332031 77.136719 23.253906 77.078125 23.179688 77.015625 C 22.808594 76.726562 22.808594 76.726562 22.664062 76.609375 C 22.570312 76.53125 22.570312 76.53125 22.46875 76.472656 C 22.351562 76.402344 22.257812 76.316406 22.15625 76.21875 C 22.117188 76.183594 22.078125 76.148438 22.039062 76.109375 C 21.984375 76.058594 21.984375 76.058594 21.925781 76.007812 C 21.757812 75.855469 21.582031 75.707031 21.402344 75.566406 C 21.230469 75.429688 21.058594 75.289062 20.921875 75.121094 C 20.921875 75.09375 20.921875 75.066406 20.921875 75.039062 C 20.886719 75.035156 20.886719 75.035156 20.851562 75.03125 C 20.734375 74.988281 20.6875 74.929688 20.609375 74.832031 C 20.511719 74.714844 20.414062 74.609375 20.296875 74.511719 C 20.167969 74.40625 20.0625 74.285156 19.953125 74.15625 C 19.847656 74.035156 19.734375 73.925781 19.617188 73.816406 C 19.558594 73.75 19.558594 73.75 19.558594 73.667969 C 19.53125 73.667969 19.503906 73.667969 19.476562 73.667969 C 19.464844 73.617188 19.449219 73.5625 19.4375 73.507812 C 19.410156 73.507812 19.382812 73.507812 19.355469 73.507812 C 19.296875 73.449219 19.296875 73.449219 19.226562 73.363281 C 19.136719 73.253906 19.039062 73.148438 18.9375 73.050781 C 18.796875 72.910156 18.679688 72.761719 18.558594 72.609375 C 18.4375 72.453125 18.308594 72.300781 18.179688 72.152344 C 18.109375 72.054688 18.109375 72.054688 18.109375 71.933594 C 18.070312 71.921875 18.03125 71.910156 17.992188 71.894531 C 17.992188 71.855469 17.992188 71.816406 17.992188 71.773438 C 17.9375 71.746094 17.886719 71.722656 17.832031 71.695312 C 17.832031 71.652344 17.832031 71.613281 17.832031 71.574219 C 17.789062 71.558594 17.75 71.546875 17.710938 71.53125 C 17.667969 71.464844 17.628906 71.394531 17.589844 71.324219 C 17.546875 71.242188 17.546875 71.242188 17.457031 71.140625 C 17.386719 71.046875 17.386719 71.046875 17.386719 70.925781 C 17.347656 70.914062 17.308594 70.902344 17.269531 70.886719 C 17.210938 70.800781 17.210938 70.800781 17.148438 70.683594 C 17.007812 70.433594 16.851562 70.203125 16.6875 69.972656 C 16.660156 69.933594 16.660156 69.933594 16.632812 69.894531 C 16.605469 69.859375 16.605469 69.859375 16.582031 69.824219 C 16.546875 69.757812 16.546875 69.757812 16.546875 69.636719 C 16.519531 69.636719 16.492188 69.636719 16.464844 69.636719 C 16.453125 69.570312 16.4375 69.503906 16.425781 69.433594 C 16.398438 69.433594 16.371094 69.433594 16.34375 69.433594 C 16.34375 69.394531 16.34375 69.355469 16.34375 69.316406 C 16.316406 69.316406 16.292969 69.316406 16.265625 69.316406 C 16.246094 69.195312 16.246094 69.195312 16.222656 69.074219 C 16.199219 69.074219 16.171875 69.074219 16.144531 69.074219 C 16.128906 69.007812 16.117188 68.941406 16.101562 68.871094 C 16.078125 68.871094 16.050781 68.871094 16.023438 68.871094 C 16.011719 68.804688 15.996094 68.738281 15.984375 68.667969 C 15.957031 68.667969 15.929688 68.667969 15.902344 68.667969 C 15.882812 68.628906 15.863281 68.585938 15.84375 68.546875 C 15.773438 68.410156 15.703125 68.277344 15.632812 68.144531 C 15.476562 67.859375 15.34375 67.574219 15.214844 67.277344 C 15.140625 67.109375 15.0625 66.941406 14.980469 66.777344 C 14.71875 66.261719 14.523438 65.707031 14.335938 65.160156 C 14.3125 65.09375 14.289062 65.027344 14.265625 64.960938 C 14.164062 64.667969 14.0625 64.375 13.964844 64.078125 C 13.9375 64 13.910156 63.917969 13.882812 63.839844 C 13.007812 61.210938 12.707031 58.421875 12.71875 55.664062 C 12.71875 55.441406 12.71875 55.214844 12.71875 54.992188 C 12.71875 54.597656 12.71875 54.207031 12.71875 53.8125 C 12.71875 53.230469 12.722656 52.648438 12.722656 52.066406 C 12.722656 51.085938 12.722656 50.101562 12.726562 49.121094 C 12.726562 48.152344 12.726562 47.179688 12.730469 46.210938 C 12.730469 46.179688 12.730469 46.152344 12.730469 46.121094 C 12.730469 45.84375 12.730469 45.566406 12.730469 45.289062 C 12.730469 44.605469 12.730469 43.917969 12.730469 43.230469 C 12.730469 43.199219 12.730469 43.167969 12.730469 43.136719 C 12.734375 41.621094 12.734375 40.105469 12.738281 38.589844 C 12.738281 38.0625 12.738281 37.539062 12.742188 37.011719 C 12.742188 36.980469 12.742188 36.945312 12.742188 36.914062 C 12.742188 35.394531 12.746094 33.875 12.746094 32.359375 C 12.746094 32.261719 12.746094 32.160156 12.746094 32.0625 C 12.746094 31.410156 12.75 30.753906 12.75 30.101562 C 12.75 28.800781 12.753906 27.5 12.753906 26.199219 C 12.753906 26.136719 12.753906 26.074219 12.753906 26.011719 C 12.757812 22.769531 12.761719 19.523438 12.769531 13.667969 Z M 36.945312 42.5 C 36.917969 42.503906 36.890625 42.507812 36.863281 42.511719 C 35.355469 42.765625 33.996094 43.226562 32.628906 43.902344 C 32.527344 43.953125 32.527344 43.953125 32.40625 43.992188 C 32.40625 44.019531 32.40625 44.046875 32.40625 44.074219 C 32.289062 44.113281 32.167969 44.152344 32.046875 44.195312 C 32.046875 44.21875 32.046875 44.246094 32.046875 44.273438 C 32.023438 44.277344 32 44.285156 31.976562 44.289062 C 31.535156 44.414062 31.117188 44.773438 30.765625 45.054688 C 30.679688 45.121094 30.597656 45.183594 30.511719 45.25 C 30.421875 45.316406 30.332031 45.382812 30.246094 45.453125 C 30.160156 45.523438 30.160156 45.523438 30.039062 45.605469 C 30.039062 45.632812 30.039062 45.65625 30.039062 45.683594 C 30.015625 45.6875 29.996094 45.691406 29.972656 45.691406 C 29.832031 45.742188 29.746094 45.824219 29.636719 45.925781 C 29.636719 45.953125 29.636719 45.980469 29.636719 46.007812 C 29.601562 46.023438 29.601562 46.023438 29.5625 46.039062 C 29.472656 46.089844 29.425781 46.136719 29.363281 46.21875 C 29.28125 46.320312 29.195312 46.40625 29.09375 46.488281 C 28.964844 46.597656 28.871094 46.714844 28.773438 46.855469 C 28.691406 46.964844 28.59375 47.058594 28.496094 47.152344 C 28.414062 47.238281 28.339844 47.324219 28.269531 47.417969 C 28.269531 47.445312 28.269531 47.472656 28.269531 47.5 C 28.210938 47.519531 28.210938 47.519531 28.152344 47.539062 C 28.074219 47.628906 28.074219 47.628906 28.003906 47.738281 C 27.964844 47.792969 27.964844 47.792969 27.925781 47.847656 C 27.863281 47.9375 27.863281 47.9375 27.871094 48.023438 C 27.84375 48.023438 27.816406 48.023438 27.789062 48.023438 C 27.722656 48.117188 27.664062 48.207031 27.605469 48.300781 C 27.585938 48.328125 27.570312 48.355469 27.550781 48.382812 C 27.460938 48.515625 27.460938 48.515625 27.429688 48.667969 C 27.402344 48.667969 27.375 48.667969 27.347656 48.667969 C 27.253906 48.792969 27.183594 48.9375 27.105469 49.074219 C 27.085938 49.113281 27.085938 49.113281 27.0625 49.152344 C 26.820312 49.574219 26.589844 50.003906 26.382812 50.445312 C 26.371094 50.472656 26.359375 50.496094 26.34375 50.527344 C 25.800781 51.714844 25.464844 53.019531 25.300781 54.316406 C 25.296875 54.34375 25.292969 54.375 25.285156 54.40625 C 24.878906 57.488281 25.652344 60.824219 27.375 63.40625 C 27.402344 63.4375 27.402344 63.4375 27.429688 63.46875 C 27.453125 63.46875 27.480469 63.46875 27.507812 63.46875 C 27.523438 63.535156 27.535156 63.601562 27.546875 63.667969 C 27.574219 63.667969 27.601562 63.667969 27.628906 63.667969 C 27.640625 63.699219 27.648438 63.726562 27.660156 63.753906 C 27.714844 63.886719 27.785156 63.996094 27.871094 64.113281 C 27.894531 64.113281 27.921875 64.113281 27.949219 64.113281 C 27.949219 64.152344 27.949219 64.191406 27.949219 64.234375 C 27.976562 64.234375 28.003906 64.234375 28.03125 64.234375 C 28.03125 64.273438 28.03125 64.3125 28.03125 64.355469 C 28.09375 64.421875 28.164062 64.492188 28.230469 64.554688 C 28.253906 64.585938 28.277344 64.617188 28.300781 64.648438 C 28.316406 64.671875 28.332031 64.695312 28.351562 64.71875 C 28.378906 64.71875 28.40625 64.71875 28.433594 64.71875 C 28.441406 64.742188 28.453125 64.765625 28.464844 64.789062 C 28.511719 64.875 28.554688 64.9375 28.617188 65.011719 C 28.648438 65.046875 28.648438 65.046875 28.679688 65.085938 C 28.703125 65.109375 28.722656 65.132812 28.746094 65.160156 C 28.777344 65.195312 28.777344 65.195312 28.808594 65.234375 C 28.933594 65.375 29.054688 65.515625 29.195312 65.644531 C 29.222656 65.644531 29.246094 65.644531 29.273438 65.644531 C 29.292969 65.679688 29.292969 65.679688 29.308594 65.71875 C 29.472656 66.023438 29.816406 66.242188 30.078125 66.453125 C 30.128906 66.492188 30.179688 66.53125 30.230469 66.574219 C 30.28125 66.613281 30.332031 66.65625 30.382812 66.695312 C 30.417969 66.726562 30.417969 66.726562 30.457031 66.757812 C 30.574219 66.859375 30.574219 66.859375 30.722656 66.894531 C 30.722656 66.921875 30.722656 66.949219 30.722656 66.976562 C 30.796875 67.035156 30.875 67.089844 30.957031 67.140625 C 31 67.171875 31.042969 67.199219 31.089844 67.230469 C 31.191406 67.304688 31.191406 67.304688 31.28125 67.296875 C 31.28125 67.324219 31.28125 67.351562 31.28125 67.378906 C 31.347656 67.390625 31.414062 67.40625 31.484375 67.417969 C 31.484375 67.445312 31.484375 67.472656 31.484375 67.5 C 33.414062 68.628906 35.398438 69.378906 37.628906 69.636719 C 37.664062 69.640625 37.703125 69.644531 37.738281 69.648438 C 38.15625 69.691406 38.574219 69.6875 38.992188 69.6875 C 39.035156 69.6875 39.074219 69.6875 39.117188 69.6875 C 39.78125 69.6875 40.425781 69.660156 41.082031 69.554688 C 41.121094 69.550781 41.160156 69.542969 41.199219 69.539062 C 41.457031 69.496094 41.710938 69.449219 41.964844 69.394531 C 42 69.386719 42.03125 69.382812 42.066406 69.375 C 42.949219 69.191406 43.832031 68.902344 44.648438 68.507812 C 44.746094 68.464844 44.84375 68.421875 44.941406 68.378906 C 45.359375 68.195312 45.761719 67.992188 46.15625 67.761719 C 46.199219 67.738281 46.242188 67.710938 46.285156 67.6875 C 46.4375 67.597656 46.4375 67.597656 46.582031 67.5 C 46.582031 67.472656 46.582031 67.445312 46.582031 67.417969 C 46.648438 67.40625 46.714844 67.394531 46.785156 67.378906 C 46.785156 67.351562 46.785156 67.324219 46.785156 67.296875 C 46.8125 67.289062 46.84375 67.277344 46.871094 67.265625 C 46.984375 67.21875 47.078125 67.164062 47.179688 67.097656 C 47.210938 67.074219 47.242188 67.054688 47.273438 67.035156 C 47.296875 67.015625 47.320312 66.996094 47.347656 66.976562 C 47.347656 66.949219 47.347656 66.921875 47.347656 66.894531 C 47.367188 66.886719 47.390625 66.875 47.414062 66.863281 C 47.730469 66.695312 48.011719 66.4375 48.285156 66.203125 C 48.308594 66.183594 48.332031 66.164062 48.355469 66.144531 C 48.507812 66.011719 48.652344 65.875 48.792969 65.726562 C 48.792969 65.699219 48.792969 65.671875 48.792969 65.644531 C 48.828125 65.628906 48.828125 65.628906 48.863281 65.613281 C 49.164062 65.449219 49.53125 65.035156 49.636719 64.71875 C 49.660156 64.707031 49.683594 64.695312 49.707031 64.683594 C 49.832031 64.617188 49.882812 64.515625 49.957031 64.394531 C 49.984375 64.382812 50.007812 64.367188 50.035156 64.355469 C 50.035156 64.316406 50.035156 64.273438 50.035156 64.234375 C 50.0625 64.234375 50.089844 64.234375 50.117188 64.234375 C 50.117188 64.195312 50.117188 64.152344 50.117188 64.113281 C 50.144531 64.113281 50.171875 64.113281 50.199219 64.113281 C 50.261719 64.035156 50.261719 64.035156 50.324219 63.9375 C 50.355469 63.886719 50.355469 63.886719 50.390625 63.835938 C 50.445312 63.753906 50.445312 63.753906 50.4375 63.667969 C 50.464844 63.667969 50.492188 63.667969 50.519531 63.667969 C 50.53125 63.601562 50.546875 63.535156 50.558594 63.46875 C 50.585938 63.46875 50.613281 63.46875 50.640625 63.46875 C 51.875 61.914062 52.496094 59.671875 52.769531 57.742188 C 52.773438 57.707031 52.777344 57.675781 52.78125 57.640625 C 53.175781 54.703125 52.464844 51.6875 51.003906 49.144531 C 50.964844 49.078125 50.925781 49.011719 50.886719 48.941406 C 50.855469 48.886719 50.855469 48.886719 50.824219 48.832031 C 50.804688 48.800781 50.785156 48.765625 50.765625 48.734375 C 50.742188 48.703125 50.742188 48.703125 50.71875 48.667969 C 50.691406 48.667969 50.667969 48.667969 50.640625 48.667969 C 50.628906 48.640625 50.617188 48.613281 50.609375 48.582031 C 50.554688 48.457031 50.492188 48.347656 50.417969 48.234375 C 50.394531 48.195312 50.371094 48.15625 50.34375 48.113281 C 50.324219 48.085938 50.300781 48.054688 50.277344 48.023438 C 50.25 48.023438 50.226562 48.023438 50.199219 48.023438 C 50.1875 47.996094 50.179688 47.972656 50.171875 47.945312 C 50.097656 47.78125 49.996094 47.632812 49.875 47.5 C 49.851562 47.5 49.824219 47.5 49.796875 47.5 C 49.785156 47.476562 49.777344 47.453125 49.765625 47.433594 C 49.703125 47.320312 49.628906 47.234375 49.539062 47.140625 C 49.417969 47.007812 49.304688 46.875 49.195312 46.734375 C 49.039062 46.550781 48.882812 46.375 48.710938 46.210938 C 48.675781 46.171875 48.640625 46.136719 48.605469 46.097656 C 48.523438 46 48.523438 46 48.429688 46.007812 C 48.417969 45.980469 48.402344 45.953125 48.390625 45.925781 C 48.351562 45.882812 48.316406 45.84375 48.273438 45.800781 C 48.246094 45.769531 48.246094 45.769531 48.210938 45.734375 C 48.148438 45.671875 48.148438 45.671875 48.027344 45.683594 C 48.015625 45.644531 48.003906 45.605469 47.988281 45.566406 C 47.933594 45.527344 47.878906 45.488281 47.820312 45.453125 C 47.738281 45.398438 47.667969 45.332031 47.59375 45.265625 C 47.457031 45.144531 47.3125 45.042969 47.160156 44.941406 C 47.058594 44.875 46.960938 44.808594 46.863281 44.738281 C 46.476562 44.421875 46.476562 44.421875 46.019531 44.273438 C 46.019531 44.246094 46.019531 44.222656 46.019531 44.195312 C 45.84375 44.132812 45.84375 44.132812 45.660156 44.074219 C 45.660156 44.046875 45.660156 44.019531 45.660156 43.992188 C 45.632812 43.980469 45.605469 43.96875 45.578125 43.953125 C 45.5 43.917969 45.421875 43.882812 45.34375 43.847656 C 45.253906 43.804688 45.164062 43.765625 45.074219 43.722656 C 44.695312 43.546875 44.695312 43.546875 44.546875 43.476562 C 43.472656 42.957031 42.292969 42.683594 41.121094 42.5 C 41.058594 42.488281 41.058594 42.488281 40.996094 42.480469 C 39.6875 42.28125 38.253906 42.28125 36.945312 42.5 Z M 36.945312 42.5 "/>
<path style=" stroke:none;fill-rule:nonzero;fill:rgb(100%,42.745098%,10.196079%);fill-opacity:1;" d="M 143.925781 29.878906 C 152.128906 29.875 152.128906 29.875 155.265625 29.875 C 156.085938 29.875 156.910156 29.875 157.730469 29.875 C 157.828125 29.875 157.929688 29.875 158.027344 29.875 C 159.609375 29.875 161.195312 29.875 162.777344 29.871094 C 164.40625 29.871094 166.03125 29.871094 167.660156 29.871094 C 167.890625 29.871094 168.117188 29.871094 168.347656 29.871094 C 168.417969 29.871094 168.417969 29.871094 168.484375 29.871094 C 169.214844 29.871094 169.941406 29.871094 170.671875 29.871094 C 171.402344 29.871094 172.132812 29.871094 172.867188 29.871094 C 173.300781 29.871094 173.734375 29.871094 174.171875 29.871094 C 174.460938 29.867188 174.753906 29.867188 175.042969 29.871094 C 175.207031 29.871094 175.375 29.871094 175.539062 29.867188 C 175.691406 29.867188 175.839844 29.867188 175.992188 29.867188 C 176.070312 29.867188 176.152344 29.867188 176.230469 29.867188 C 176.617188 29.871094 177.003906 29.898438 177.378906 30 C 177.378906 30.027344 177.378906 30.054688 177.378906 30.082031 C 177.402344 30.089844 177.425781 30.101562 177.449219 30.113281 C 177.613281 30.199219 177.746094 30.292969 177.859375 30.445312 C 177.90625 30.609375 177.898438 30.773438 177.894531 30.945312 C 177.894531 30.992188 177.894531 31.039062 177.894531 31.089844 C 177.894531 31.191406 177.890625 31.289062 177.890625 31.390625 C 177.886719 31.546875 177.882812 31.699219 177.882812 31.855469 C 177.882812 31.953125 177.878906 32.050781 177.878906 32.148438 C 177.878906 32.191406 177.878906 32.238281 177.878906 32.285156 C 177.875 32.328125 177.875 32.371094 177.875 32.417969 C 177.875 32.453125 177.871094 32.492188 177.871094 32.53125 C 177.859375 32.621094 177.859375 32.621094 177.78125 32.703125 C 177.703125 32.921875 177.675781 33.136719 177.65625 33.363281 C 177.652344 33.398438 177.648438 33.429688 177.644531 33.464844 C 177.636719 33.546875 177.628906 33.628906 177.621094 33.710938 C 177.59375 33.710938 177.566406 33.710938 177.539062 33.710938 C 177.539062 33.882812 177.539062 34.054688 177.539062 34.234375 C 177.511719 34.246094 177.484375 34.261719 177.457031 34.273438 C 177.449219 34.355469 177.4375 34.4375 177.433594 34.519531 C 177.417969 34.597656 177.417969 34.597656 177.339844 34.675781 C 177.328125 34.710938 177.316406 34.746094 177.304688 34.785156 C 177.269531 34.890625 177.230469 34.972656 177.179688 35.070312 C 177.097656 35.230469 177.050781 35.386719 177.003906 35.558594 C 176.976562 35.644531 176.976562 35.644531 176.898438 35.726562 C 176.871094 35.789062 176.84375 35.851562 176.820312 35.917969 C 176.71875 36.179688 176.574219 36.375 176.390625 36.585938 C 176.328125 36.660156 176.328125 36.660156 176.265625 36.773438 C 176.246094 36.800781 176.230469 36.828125 176.214844 36.855469 C 176.1875 36.855469 176.160156 36.855469 176.132812 36.855469 C 176.121094 36.878906 176.109375 36.902344 176.101562 36.925781 C 175.933594 37.25 175.710938 37.492188 175.449219 37.742188 C 175.414062 37.78125 175.375 37.824219 175.335938 37.863281 C 175.25 37.945312 175.25 37.945312 175.128906 37.984375 C 175.101562 38.039062 175.074219 38.089844 175.050781 38.144531 C 174.988281 38.214844 174.921875 38.28125 174.855469 38.347656 C 174.820312 38.382812 174.789062 38.417969 174.753906 38.453125 C 174.628906 38.5625 174.507812 38.640625 174.359375 38.707031 C 174.277344 38.746094 174.277344 38.746094 174.246094 38.832031 C 174.234375 38.859375 174.21875 38.882812 174.207031 38.910156 C 174.152344 38.925781 174.097656 38.941406 174.046875 38.953125 C 173.902344 39.035156 173.816406 39.09375 173.722656 39.234375 C 173.683594 39.234375 173.644531 39.234375 173.605469 39.234375 C 173.605469 39.261719 173.605469 39.285156 173.605469 39.316406 C 173.539062 39.328125 173.472656 39.339844 173.402344 39.355469 C 173.402344 39.382812 173.402344 39.40625 173.402344 39.433594 C 173.332031 39.476562 173.257812 39.515625 173.1875 39.554688 C 173.113281 39.59375 173.113281 39.59375 173.082031 39.675781 C 173 39.714844 173 39.714844 172.878906 39.757812 C 172.828125 39.777344 172.773438 39.796875 172.71875 39.820312 C 172.679688 39.835938 172.679688 39.835938 172.636719 39.851562 C 172.578125 39.871094 172.519531 39.894531 172.460938 39.917969 C 172.242188 40.007812 172.027344 40.085938 171.796875 40.140625 C 171.558594 40.199219 171.558594 40.199219 171.355469 40.324219 C 171.273438 40.332031 171.1875 40.339844 171.105469 40.347656 C 171.082031 40.351562 171.058594 40.359375 171.035156 40.363281 C 171.019531 40.390625 171.007812 40.417969 170.992188 40.445312 C 170.90625 40.457031 170.90625 40.457031 170.796875 40.464844 C 170.648438 40.472656 170.597656 40.480469 170.472656 40.566406 C 170.359375 40.574219 170.359375 40.574219 170.214844 40.574219 C 170.191406 40.574219 170.164062 40.574219 170.136719 40.574219 C 170.050781 40.574219 169.960938 40.574219 169.871094 40.574219 C 169.808594 40.574219 169.746094 40.574219 169.683594 40.574219 C 169.507812 40.574219 169.332031 40.574219 169.15625 40.574219 C 168.96875 40.574219 168.78125 40.574219 168.589844 40.574219 C 168.265625 40.574219 167.9375 40.574219 167.609375 40.574219 C 167.136719 40.574219 166.664062 40.570312 166.191406 40.570312 C 165.425781 40.570312 164.65625 40.570312 163.890625 40.570312 C 163.144531 40.570312 162.402344 40.570312 161.65625 40.570312 C 161.585938 40.570312 161.585938 40.570312 161.515625 40.570312 C 161.285156 40.570312 161.054688 40.570312 160.824219 40.570312 C 158.914062 40.566406 157.003906 40.566406 155.089844 40.566406 C 155.105469 42.746094 155.117188 44.929688 155.132812 47.175781 C 156.046875 46.878906 156.046875 46.878906 156.976562 46.574219 C 157.585938 46.402344 158.191406 46.269531 158.808594 46.15625 C 158.839844 46.152344 158.867188 46.148438 158.894531 46.140625 C 159.589844 46.019531 160.269531 45.953125 160.972656 45.957031 C 161.046875 45.957031 161.121094 45.957031 161.195312 45.957031 C 161.347656 45.953125 161.5 45.953125 161.652344 45.953125 C 161.804688 45.957031 161.957031 45.953125 162.113281 45.953125 C 162.9375 45.949219 163.75 45.945312 164.566406 46.089844 C 164.621094 46.097656 164.671875 46.105469 164.726562 46.113281 C 164.855469 46.132812 164.980469 46.15625 165.109375 46.183594 C 165.152344 46.191406 165.199219 46.199219 165.242188 46.207031 C 166.070312 46.371094 166.875 46.585938 167.679688 46.847656 C 167.8125 46.890625 167.945312 46.933594 168.082031 46.976562 C 168.789062 47.203125 169.445312 47.523438 170.109375 47.863281 C 170.1875 47.902344 170.265625 47.941406 170.339844 47.976562 C 170.964844 48.289062 171.550781 48.628906 172.117188 49.03125 C 172.179688 49.078125 172.242188 49.121094 172.304688 49.164062 C 172.449219 49.261719 172.589844 49.363281 172.730469 49.464844 C 172.792969 49.511719 172.855469 49.554688 172.917969 49.597656 C 173.359375 49.910156 173.753906 50.277344 174.148438 50.636719 C 174.203125 50.6875 174.257812 50.738281 174.316406 50.785156 C 174.53125 50.972656 174.730469 51.167969 174.929688 51.367188 C 174.976562 51.414062 174.976562 51.414062 175.023438 51.460938 C 175.191406 51.628906 175.355469 51.804688 175.511719 51.984375 C 175.589844 52.078125 175.671875 52.167969 175.757812 52.253906 C 176 52.523438 176.214844 52.8125 176.433594 53.101562 C 176.488281 53.175781 176.546875 53.25 176.601562 53.324219 C 177.085938 53.941406 177.472656 54.605469 177.859375 55.28125 C 177.890625 55.332031 177.890625 55.332031 177.917969 55.382812 C 178.035156 55.589844 178.152344 55.796875 178.261719 56.007812 C 178.277344 56.035156 178.289062 56.0625 178.304688 56.089844 C 179.285156 57.972656 179.910156 60.183594 180.058594 62.300781 C 180.0625 62.378906 180.0625 62.378906 180.109375 62.417969 C 180.113281 62.527344 180.113281 62.632812 180.113281 62.738281 C 180.113281 62.769531 180.113281 62.804688 180.113281 62.839844 C 180.113281 62.949219 180.113281 63.0625 180.113281 63.171875 C 180.113281 63.25 180.113281 63.324219 180.113281 63.402344 C 180.113281 63.5625 180.113281 63.722656 180.113281 63.882812 C 180.113281 64.089844 180.113281 64.296875 180.113281 64.503906 C 180.113281 64.664062 180.113281 64.820312 180.113281 64.980469 C 180.113281 65.054688 180.113281 65.132812 180.113281 65.210938 C 180.113281 65.316406 180.113281 65.421875 180.113281 65.527344 C 180.113281 65.558594 180.113281 65.59375 180.113281 65.625 C 180.113281 65.84375 180.113281 65.84375 180.070312 65.886719 C 180.054688 65.992188 180.039062 66.09375 180.027344 66.199219 C 180.019531 66.261719 180.011719 66.328125 180.003906 66.394531 C 180 66.429688 179.992188 66.464844 179.988281 66.5 C 179.84375 67.664062 179.84375 67.664062 179.707031 68.226562 C 179.699219 68.265625 179.6875 68.300781 179.679688 68.339844 C 179.4375 69.332031 179.101562 70.292969 178.703125 71.234375 C 178.664062 71.332031 178.625 71.433594 178.585938 71.53125 C 178.503906 71.738281 178.40625 71.941406 178.308594 72.140625 C 178.289062 72.179688 178.269531 72.21875 178.25 72.257812 C 178.019531 72.710938 177.761719 73.152344 177.5 73.589844 C 177.480469 73.621094 177.460938 73.652344 177.441406 73.683594 C 177.105469 74.25 176.726562 74.789062 176.304688 75.292969 C 176.21875 75.398438 176.136719 75.503906 176.054688 75.609375 C 175.734375 76.023438 175.386719 76.398438 175.015625 76.765625 C 174.90625 76.875 174.800781 76.988281 174.699219 77.109375 C 174.5625 77.269531 174.40625 77.402344 174.246094 77.539062 C 174.199219 77.582031 174.148438 77.625 174.101562 77.667969 C 174.042969 77.71875 173.984375 77.769531 173.925781 77.824219 C 173.90625 77.839844 173.886719 77.859375 173.863281 77.875 C 173.359375 78.316406 172.839844 78.71875 172.285156 79.09375 C 172.195312 79.15625 172.105469 79.214844 172.015625 79.277344 C 171.953125 79.320312 171.894531 79.359375 171.832031 79.402344 C 171.804688 79.421875 171.777344 79.441406 171.75 79.460938 C 169.164062 81.199219 165.804688 82.296875 162.691406 82.304688 C 162.664062 82.308594 162.632812 82.308594 162.601562 82.308594 C 162.445312 82.308594 162.289062 82.308594 162.128906 82.308594 C 162.003906 82.308594 161.875 82.308594 161.75 82.308594 C 159.5 82.324219 157.4375 81.835938 155.316406 81.121094 C 155.023438 81.023438 154.730469 80.933594 154.4375 80.851562 C 154.214844 80.785156 154.011719 80.703125 153.804688 80.605469 C 153.804688 80.578125 153.804688 80.550781 153.804688 80.523438 C 153.859375 80.523438 153.910156 80.523438 153.964844 80.523438 C 153.941406 80.511719 153.921875 80.5 153.898438 80.488281 C 153.042969 80.070312 152.253906 79.621094 151.472656 79.074219 C 151.367188 79 151.265625 78.929688 151.160156 78.855469 C 150.816406 78.617188 150.492188 78.363281 150.179688 78.085938 C 150.085938 78 149.988281 77.917969 149.890625 77.835938 C 149.359375 77.378906 148.828125 76.910156 148.371094 76.371094 C 148.289062 76.273438 148.199219 76.179688 148.113281 76.082031 C 147.902344 75.851562 147.710938 75.609375 147.519531 75.359375 C 147.476562 75.304688 147.433594 75.246094 147.386719 75.191406 C 147.179688 74.933594 146.988281 74.667969 146.804688 74.390625 C 146.789062 74.367188 146.773438 74.347656 146.757812 74.324219 C 146.53125 73.988281 146.308594 73.648438 146.101562 73.300781 C 146.066406 73.246094 146.03125 73.1875 146 73.132812 C 145.851562 72.894531 145.726562 72.648438 145.605469 72.394531 C 145.585938 72.355469 145.566406 72.3125 145.550781 72.273438 C 145.488281 72.148438 145.429688 72.019531 145.371094 71.894531 C 145.351562 71.855469 145.335938 71.8125 145.3125 71.773438 C 144.957031 71.007812 144.652344 70.246094 144.417969 69.433594 C 144.40625 69.394531 144.40625 69.394531 144.394531 69.355469 C 144.316406 69.089844 144.246094 68.828125 144.183594 68.558594 C 144.175781 68.511719 144.164062 68.464844 144.152344 68.414062 C 144.140625 68.363281 144.140625 68.363281 144.128906 68.304688 C 145.542969 68.296875 146.957031 68.292969 148.371094 68.285156 C 148.539062 68.285156 148.707031 68.285156 148.875 68.28125 C 148.90625 68.28125 148.941406 68.28125 148.972656 68.28125 C 149.511719 68.28125 150.050781 68.277344 150.589844 68.273438 C 151.140625 68.269531 151.695312 68.269531 152.246094 68.265625 C 152.589844 68.265625 152.929688 68.261719 153.269531 68.261719 C 153.503906 68.257812 153.738281 68.257812 153.972656 68.257812 C 154.105469 68.257812 154.242188 68.257812 154.375 68.253906 C 154.523438 68.253906 154.667969 68.253906 154.816406 68.253906 C 154.859375 68.253906 154.902344 68.253906 154.945312 68.25 C 154.984375 68.25 155.023438 68.25 155.0625 68.25 C 155.113281 68.25 155.113281 68.25 155.164062 68.25 C 155.273438 68.269531 155.304688 68.304688 155.371094 68.386719 C 155.410156 68.445312 155.445312 68.507812 155.480469 68.570312 C 155.675781 68.902344 155.902344 69.210938 156.164062 69.492188 C 156.214844 69.554688 156.214844 69.554688 156.214844 69.636719 C 156.242188 69.636719 156.269531 69.636719 156.296875 69.636719 C 156.355469 69.699219 156.355469 69.699219 156.425781 69.785156 C 156.515625 69.894531 156.605469 69.988281 156.714844 70.074219 C 156.75 70.105469 156.78125 70.132812 156.816406 70.160156 C 156.816406 70.1875 156.816406 70.214844 156.816406 70.242188 C 156.839844 70.253906 156.867188 70.265625 156.890625 70.277344 C 156.976562 70.324219 156.976562 70.324219 157.097656 70.402344 C 157.097656 70.429688 157.097656 70.457031 157.097656 70.484375 C 157.121094 70.492188 157.140625 70.503906 157.164062 70.515625 C 157.28125 70.574219 157.382812 70.648438 157.488281 70.726562 C 159.105469 71.859375 161.109375 72.34375 163.066406 72.015625 C 164.269531 71.792969 165.386719 71.332031 166.367188 70.585938 C 166.457031 70.523438 166.457031 70.523438 166.574219 70.484375 C 166.574219 70.457031 166.574219 70.429688 166.574219 70.402344 C 166.753906 70.242188 166.753906 70.242188 166.855469 70.242188 C 166.855469 70.214844 166.855469 70.1875 166.855469 70.160156 C 166.921875 70.101562 166.921875 70.101562 167.003906 70.03125 C 167.113281 69.941406 167.207031 69.851562 167.292969 69.742188 C 167.320312 69.707031 167.351562 69.671875 167.378906 69.636719 C 167.40625 69.636719 167.433594 69.636719 167.460938 69.636719 C 167.46875 69.613281 167.480469 69.59375 167.488281 69.570312 C 167.550781 69.457031 167.621094 69.375 167.703125 69.277344 C 167.898438 69.042969 168.0625 68.796875 168.222656 68.535156 C 168.257812 68.476562 168.296875 68.417969 168.332031 68.359375 C 169.324219 66.789062 169.53125 64.695312 169.136719 62.914062 C 168.859375 61.738281 168.335938 60.589844 167.507812 59.699219 C 167.460938 59.636719 167.460938 59.636719 167.460938 59.554688 C 167.433594 59.554688 167.40625 59.554688 167.378906 59.554688 C 167.316406 59.492188 167.316406 59.492188 167.25 59.40625 C 167.160156 59.300781 167.070312 59.207031 166.960938 59.117188 C 166.925781 59.089844 166.890625 59.0625 166.855469 59.03125 C 166.855469 59.003906 166.855469 58.980469 166.855469 58.953125 C 166.832031 58.941406 166.808594 58.929688 166.785156 58.917969 C 166.695312 58.871094 166.695312 58.871094 166.574219 58.789062 C 166.574219 58.765625 166.574219 58.738281 166.574219 58.710938 C 166.554688 58.699219 166.53125 58.691406 166.511719 58.679688 C 166.394531 58.617188 166.292969 58.542969 166.1875 58.46875 C 164.507812 57.292969 162.472656 56.855469 160.453125 57.199219 C 159.183594 57.429688 157.90625 58.015625 156.960938 58.902344 C 156.898438 58.953125 156.898438 58.953125 156.816406 58.953125 C 156.816406 58.976562 156.816406 59.003906 156.816406 59.03125 C 156.753906 59.09375 156.753906 59.09375 156.667969 59.164062 C 156.5625 59.253906 156.46875 59.34375 156.378906 59.453125 C 156.351562 59.488281 156.324219 59.519531 156.296875 59.554688 C 156.269531 59.554688 156.242188 59.554688 156.214844 59.554688 C 156.199219 59.59375 156.199219 59.59375 156.179688 59.628906 C 156.136719 59.71875 156.136719 59.71875 156.054688 59.839844 C 156.027344 59.839844 156 59.839844 155.972656 59.839844 C 155.964844 59.859375 155.953125 59.882812 155.945312 59.902344 C 155.867188 60.046875 155.769531 60.179688 155.675781 60.3125 C 155.542969 60.503906 155.433594 60.703125 155.332031 60.917969 C 155.234375 61.027344 155.167969 61.027344 155.027344 61.042969 C 154.84375 61.054688 154.660156 61.054688 154.476562 61.054688 C 154.429688 61.054688 154.386719 61.054688 154.339844 61.054688 C 154.1875 61.054688 154.039062 61.054688 153.886719 61.054688 C 153.78125 61.054688 153.671875 61.054688 153.566406 61.054688 C 153.300781 61.054688 153.039062 61.054688 152.777344 61.054688 C 152.5625 61.054688 152.351562 61.054688 152.136719 61.054688 C 152.109375 61.054688 152.078125 61.054688 152.046875 61.054688 C 151.984375 61.054688 151.921875 61.054688 151.859375 61.054688 C 151.28125 61.054688 150.707031 61.054688 150.128906 61.054688 C 149.632812 61.054688 149.136719 61.054688 148.640625 61.054688 C 148.0625 61.054688 147.488281 61.054688 146.910156 61.054688 C 146.847656 61.054688 146.789062 61.054688 146.726562 61.054688 C 146.695312 61.054688 146.667969 61.054688 146.636719 61.054688 C 146.421875 61.054688 146.210938 61.054688 145.996094 61.054688 C 145.738281 61.054688 145.476562 61.054688 145.21875 61.054688 C 145.085938 61.054688 144.953125 61.054688 144.820312 61.054688 C 144.675781 61.054688 144.535156 61.054688 144.390625 61.054688 C 144.328125 61.054688 144.328125 61.054688 144.261719 61.054688 C 144.222656 61.054688 144.1875 61.054688 144.148438 61.054688 C 144.113281 61.054688 144.082031 61.054688 144.046875 61.054688 C 143.96875 61.046875 143.96875 61.046875 143.886719 61.007812 C 143.898438 50.734375 143.914062 40.464844 143.925781 29.878906 Z M 143.925781 29.878906 "/>
<path style=" stroke:none;fill-rule:nonzero;fill:rgb(100%,42.745098%,10.196079%);fill-opacity:1;" d="M 105.011719 29.878906 C 113.214844 29.875 113.214844 29.875 116.355469 29.875 C 117.175781 29.875 117.996094 29.875 118.816406 29.875 C 118.914062 29.875 119.015625 29.875 119.113281 29.875 C 120.699219 29.875 122.28125 29.875 123.863281 29.871094 C 125.492188 29.871094 127.117188 29.871094 128.746094 29.871094 C 128.976562 29.871094 129.207031 29.871094 129.433594 29.871094 C 129.503906 29.871094 129.503906 29.871094 129.574219 29.871094 C 130.300781 29.871094 131.027344 29.871094 131.757812 29.871094 C 132.488281 29.871094 133.222656 29.871094 133.953125 29.871094 C 134.386719 29.871094 134.824219 29.871094 135.257812 29.871094 C 135.546875 29.867188 135.839844 29.867188 136.128906 29.871094 C 136.296875 29.871094 136.460938 29.871094 136.625 29.867188 C 136.777344 29.867188 136.929688 29.867188 137.078125 29.867188 C 137.15625 29.867188 137.238281 29.867188 137.316406 29.867188 C 137.703125 29.871094 138.089844 29.898438 138.464844 30 C 138.464844 30.027344 138.464844 30.054688 138.464844 30.082031 C 138.488281 30.089844 138.511719 30.101562 138.535156 30.113281 C 138.699219 30.199219 138.835938 30.292969 138.945312 30.445312 C 138.992188 30.609375 138.988281 30.773438 138.980469 30.945312 C 138.980469 30.992188 138.980469 31.039062 138.980469 31.089844 C 138.980469 31.191406 138.976562 31.289062 138.976562 31.390625 C 138.972656 31.546875 138.972656 31.699219 138.96875 31.855469 C 138.96875 31.953125 138.96875 32.050781 138.964844 32.148438 C 138.964844 32.191406 138.964844 32.238281 138.964844 32.285156 C 138.964844 32.328125 138.960938 32.371094 138.960938 32.417969 C 138.960938 32.453125 138.960938 32.492188 138.957031 32.53125 C 138.945312 32.621094 138.945312 32.621094 138.867188 32.703125 C 138.792969 32.921875 138.765625 33.136719 138.742188 33.363281 C 138.738281 33.398438 138.734375 33.429688 138.730469 33.464844 C 138.722656 33.546875 138.714844 33.628906 138.707031 33.710938 C 138.679688 33.710938 138.652344 33.710938 138.625 33.710938 C 138.625 33.882812 138.625 34.054688 138.625 34.234375 C 138.597656 34.246094 138.574219 34.261719 138.546875 34.273438 C 138.535156 34.355469 138.523438 34.4375 138.519531 34.519531 C 138.503906 34.597656 138.503906 34.597656 138.425781 34.675781 C 138.414062 34.710938 138.402344 34.746094 138.390625 34.785156 C 138.355469 34.890625 138.320312 34.972656 138.265625 35.070312 C 138.183594 35.230469 138.136719 35.386719 138.09375 35.558594 C 138.0625 35.644531 138.0625 35.644531 137.984375 35.726562 C 137.957031 35.789062 137.929688 35.851562 137.90625 35.917969 C 137.804688 36.179688 137.660156 36.375 137.476562 36.585938 C 137.414062 36.660156 137.414062 36.660156 137.351562 36.773438 C 137.335938 36.800781 137.316406 36.828125 137.300781 36.855469 C 137.273438 36.855469 137.246094 36.855469 137.21875 36.855469 C 137.210938 36.878906 137.199219 36.902344 137.1875 36.925781 C 137.019531 37.25 136.796875 37.492188 136.539062 37.742188 C 136.5 37.78125 136.460938 37.824219 136.421875 37.863281 C 136.335938 37.945312 136.335938 37.945312 136.214844 37.984375 C 136.1875 38.039062 136.164062 38.089844 136.136719 38.144531 C 136.074219 38.214844 136.007812 38.28125 135.941406 38.347656 C 135.910156 38.382812 135.875 38.417969 135.839844 38.453125 C 135.71875 38.5625 135.597656 38.640625 135.445312 38.707031 C 135.367188 38.746094 135.367188 38.746094 135.332031 38.832031 C 135.320312 38.859375 135.304688 38.882812 135.292969 38.910156 C 135.238281 38.925781 135.1875 38.941406 135.132812 38.953125 C 134.992188 39.035156 134.902344 39.09375 134.8125 39.234375 C 134.769531 39.234375 134.730469 39.234375 134.691406 39.234375 C 134.691406 39.261719 134.691406 39.285156 134.691406 39.316406 C 134.625 39.328125 134.558594 39.339844 134.488281 39.355469 C 134.488281 39.382812 134.488281 39.40625 134.488281 39.433594 C 134.417969 39.476562 134.347656 39.515625 134.273438 39.554688 C 134.203125 39.59375 134.203125 39.59375 134.167969 39.675781 C 134.085938 39.714844 134.085938 39.714844 133.96875 39.757812 C 133.914062 39.777344 133.859375 39.796875 133.808594 39.820312 C 133.765625 39.835938 133.765625 39.835938 133.722656 39.851562 C 133.664062 39.871094 133.605469 39.894531 133.546875 39.917969 C 133.328125 40.007812 133.113281 40.085938 132.882812 40.140625 C 132.644531 40.199219 132.644531 40.199219 132.441406 40.324219 C 132.359375 40.332031 132.277344 40.339844 132.191406 40.347656 C 132.167969 40.351562 132.144531 40.359375 132.121094 40.363281 C 132.105469 40.390625 132.09375 40.417969 132.082031 40.445312 C 131.992188 40.457031 131.992188 40.457031 131.882812 40.464844 C 131.734375 40.472656 131.6875 40.480469 131.558594 40.566406 C 131.445312 40.574219 131.445312 40.574219 131.304688 40.574219 C 131.277344 40.574219 131.25 40.574219 131.222656 40.574219 C 131.136719 40.574219 131.046875 40.574219 130.960938 40.574219 C 130.894531 40.574219 130.832031 40.574219 130.769531 40.574219 C 130.59375 40.574219 130.417969 40.574219 130.242188 40.574219 C 130.054688 40.574219 129.867188 40.574219 129.679688 40.574219 C 129.351562 40.574219 129.023438 40.574219 128.695312 40.574219 C 128.222656 40.574219 127.75 40.570312 127.277344 40.570312 C 126.511719 40.570312 125.746094 40.570312 124.976562 40.570312 C 124.234375 40.570312 123.488281 40.570312 122.742188 40.570312 C 122.671875 40.570312 122.671875 40.570312 122.601562 40.570312 C 122.371094 40.570312 122.140625 40.570312 121.910156 40.570312 C 120 40.566406 118.089844 40.566406 116.175781 40.566406 C 116.191406 42.746094 116.203125 44.929688 116.21875 47.175781 C 117.132812 46.878906 117.132812 46.878906 118.066406 46.574219 C 118.671875 46.402344 119.277344 46.269531 119.898438 46.15625 C 119.925781 46.152344 119.953125 46.148438 119.980469 46.140625 C 120.675781 46.019531 121.355469 45.953125 122.0625 45.957031 C 122.132812 45.957031 122.207031 45.957031 122.28125 45.957031 C 122.433594 45.953125 122.585938 45.953125 122.738281 45.953125 C 122.890625 45.957031 123.046875 45.953125 123.199219 45.953125 C 124.027344 45.949219 124.839844 45.945312 125.65625 46.089844 C 125.707031 46.097656 125.757812 46.105469 125.8125 46.113281 C 125.941406 46.132812 126.066406 46.15625 126.195312 46.183594 C 126.238281 46.191406 126.285156 46.199219 126.332031 46.207031 C 127.160156 46.371094 127.964844 46.585938 128.765625 46.847656 C 128.898438 46.890625 129.03125 46.933594 129.167969 46.976562 C 129.878906 47.203125 130.535156 47.523438 131.199219 47.863281 C 131.273438 47.902344 131.351562 47.941406 131.429688 47.976562 C 132.050781 48.289062 132.636719 48.628906 133.203125 49.03125 C 133.265625 49.078125 133.328125 49.121094 133.394531 49.164062 C 133.535156 49.261719 133.675781 49.363281 133.816406 49.464844 C 133.878906 49.511719 133.941406 49.554688 134.007812 49.597656 C 134.445312 49.910156 134.839844 50.277344 135.234375 50.636719 C 135.289062 50.6875 135.347656 50.738281 135.402344 50.785156 C 135.617188 50.972656 135.820312 51.167969 136.019531 51.367188 C 136.0625 51.414062 136.0625 51.414062 136.109375 51.460938 C 136.28125 51.628906 136.441406 51.804688 136.597656 51.984375 C 136.675781 52.078125 136.761719 52.167969 136.84375 52.253906 C 137.085938 52.523438 137.300781 52.8125 137.519531 53.101562 C 137.574219 53.175781 137.632812 53.25 137.691406 53.324219 C 138.171875 53.941406 138.5625 54.605469 138.945312 55.28125 C 138.976562 55.332031 138.976562 55.332031 139.003906 55.382812 C 139.125 55.589844 139.238281 55.796875 139.347656 56.007812 C 139.363281 56.035156 139.375 56.0625 139.390625 56.089844 C 140.371094 57.972656 140.996094 60.183594 141.144531 62.300781 C 141.148438 62.378906 141.148438 62.378906 141.195312 62.417969 C 141.199219 62.527344 141.203125 62.632812 141.203125 62.738281 C 141.203125 62.769531 141.203125 62.804688 141.203125 62.839844 C 141.203125 62.949219 141.203125 63.0625 141.203125 63.171875 C 141.203125 63.25 141.203125 63.324219 141.203125 63.402344 C 141.203125 63.5625 141.203125 63.722656 141.203125 63.882812 C 141.199219 64.089844 141.199219 64.296875 141.203125 64.503906 C 141.203125 64.664062 141.203125 64.820312 141.203125 64.980469 C 141.203125 65.054688 141.203125 65.132812 141.203125 65.210938 C 141.203125 65.316406 141.203125 65.421875 141.203125 65.527344 C 141.203125 65.558594 141.203125 65.59375 141.203125 65.625 C 141.199219 65.84375 141.199219 65.84375 141.15625 65.886719 C 141.140625 65.992188 141.125 66.09375 141.113281 66.199219 C 141.105469 66.261719 141.097656 66.328125 141.089844 66.394531 C 141.085938 66.429688 141.082031 66.464844 141.078125 66.5 C 140.929688 67.664062 140.929688 67.664062 140.792969 68.226562 C 140.785156 68.265625 140.777344 68.300781 140.765625 68.339844 C 140.523438 69.332031 140.1875 70.292969 139.789062 71.234375 C 139.75 71.332031 139.710938 71.433594 139.671875 71.53125 C 139.589844 71.738281 139.492188 71.941406 139.394531 72.140625 C 139.375 72.179688 139.355469 72.21875 139.335938 72.257812 C 139.105469 72.710938 138.847656 73.152344 138.585938 73.589844 C 138.566406 73.621094 138.550781 73.652344 138.53125 73.683594 C 138.191406 74.25 137.8125 74.789062 137.390625 75.292969 C 137.304688 75.398438 137.222656 75.503906 137.140625 75.609375 C 136.824219 76.023438 136.472656 76.398438 136.105469 76.765625 C 135.992188 76.875 135.886719 76.988281 135.785156 77.109375 C 135.648438 77.269531 135.492188 77.402344 135.332031 77.539062 C 135.285156 77.582031 135.234375 77.625 135.1875 77.667969 C 135.128906 77.71875 135.070312 77.769531 135.011719 77.824219 C 134.992188 77.839844 134.972656 77.859375 134.949219 77.875 C 134.445312 78.316406 133.925781 78.71875 133.371094 79.09375 C 133.28125 79.15625 133.191406 79.214844 133.101562 79.277344 C 133.042969 79.320312 132.980469 79.359375 132.917969 79.402344 C 132.890625 79.421875 132.863281 79.441406 132.835938 79.460938 C 130.25 81.199219 126.890625 82.296875 123.777344 82.304688 C 123.75 82.308594 123.71875 82.308594 123.6875 82.308594 C 123.53125 82.308594 123.375 82.308594 123.21875 82.308594 C 123.089844 82.308594 122.960938 82.308594 122.835938 82.308594 C 120.585938 82.324219 118.523438 81.835938 116.402344 81.121094 C 116.109375 81.023438 115.816406 80.933594 115.523438 80.851562 C 115.304688 80.785156 115.097656 80.703125 114.890625 80.605469 C 114.890625 80.578125 114.890625 80.550781 114.890625 80.523438 C 114.945312 80.523438 115 80.523438 115.054688 80.523438 C 115.03125 80.511719 115.007812 80.5 114.984375 80.488281 C 114.132812 80.070312 113.339844 79.621094 112.558594 79.074219 C 112.457031 79 112.351562 78.929688 112.246094 78.855469 C 111.902344 78.617188 111.582031 78.363281 111.265625 78.085938 C 111.171875 78 111.074219 77.917969 110.980469 77.835938 C 110.445312 77.378906 109.914062 76.910156 109.457031 76.371094 C 109.375 76.273438 109.289062 76.179688 109.199219 76.082031 C 108.988281 75.851562 108.796875 75.609375 108.609375 75.359375 C 108.5625 75.304688 108.519531 75.246094 108.472656 75.191406 C 108.265625 74.933594 108.074219 74.667969 107.890625 74.390625 C 107.875 74.367188 107.859375 74.347656 107.84375 74.324219 C 107.617188 73.988281 107.398438 73.648438 107.1875 73.300781 C 107.152344 73.246094 107.121094 73.1875 107.085938 73.132812 C 106.9375 72.894531 106.8125 72.648438 106.691406 72.394531 C 106.675781 72.355469 106.65625 72.3125 106.636719 72.273438 C 106.578125 72.148438 106.519531 72.019531 106.460938 71.894531 C 106.441406 71.855469 106.421875 71.8125 106.402344 71.773438 C 106.042969 71.007812 105.738281 70.246094 105.503906 69.433594 C 105.492188 69.394531 105.492188 69.394531 105.480469 69.355469 C 105.402344 69.089844 105.332031 68.828125 105.273438 68.558594 C 105.261719 68.511719 105.25 68.464844 105.238281 68.414062 C 105.226562 68.363281 105.226562 68.363281 105.214844 68.304688 C 106.628906 68.296875 108.042969 68.292969 109.460938 68.285156 C 109.625 68.285156 109.792969 68.285156 109.960938 68.28125 C 109.992188 68.28125 110.027344 68.28125 110.0625 68.28125 C 110.601562 68.28125 111.136719 68.277344 111.675781 68.273438 C 112.230469 68.269531 112.78125 68.269531 113.335938 68.265625 C 113.675781 68.265625 114.015625 68.261719 114.355469 68.261719 C 114.589844 68.257812 114.824219 68.257812 115.058594 68.257812 C 115.191406 68.257812 115.328125 68.257812 115.464844 68.253906 C 115.609375 68.253906 115.753906 68.253906 115.902344 68.253906 C 115.945312 68.253906 115.988281 68.253906 116.03125 68.25 C 116.070312 68.25 116.109375 68.25 116.148438 68.25 C 116.199219 68.25 116.199219 68.25 116.25 68.25 C 116.359375 68.269531 116.390625 68.304688 116.457031 68.386719 C 116.496094 68.445312 116.53125 68.507812 116.566406 68.570312 C 116.761719 68.902344 116.988281 69.210938 117.25 69.492188 C 117.300781 69.554688 117.300781 69.554688 117.300781 69.636719 C 117.328125 69.636719 117.355469 69.636719 117.382812 69.636719 C 117.441406 69.699219 117.441406 69.699219 117.511719 69.785156 C 117.601562 69.894531 117.691406 69.988281 117.800781 70.074219 C 117.835938 70.105469 117.871094 70.132812 117.902344 70.160156 C 117.902344 70.1875 117.902344 70.214844 117.902344 70.242188 C 117.929688 70.253906 117.953125 70.265625 117.976562 70.277344 C 118.066406 70.324219 118.066406 70.324219 118.183594 70.402344 C 118.183594 70.429688 118.183594 70.457031 118.183594 70.484375 C 118.207031 70.492188 118.230469 70.503906 118.25 70.515625 C 118.367188 70.574219 118.46875 70.648438 118.574219 70.726562 C 120.195312 71.859375 122.199219 72.34375 124.15625 72.015625 C 125.359375 71.792969 126.472656 71.332031 127.453125 70.585938 C 127.542969 70.523438 127.542969 70.523438 127.664062 70.484375 C 127.664062 70.457031 127.664062 70.429688 127.664062 70.402344 C 127.84375 70.242188 127.84375 70.242188 127.945312 70.242188 C 127.945312 70.214844 127.945312 70.1875 127.945312 70.160156 C 128.007812 70.101562 128.007812 70.101562 128.09375 70.03125 C 128.199219 69.941406 128.292969 69.851562 128.378906 69.742188 C 128.410156 69.707031 128.4375 69.671875 128.464844 69.636719 C 128.492188 69.636719 128.519531 69.636719 128.546875 69.636719 C 128.554688 69.613281 128.566406 69.59375 128.574219 69.570312 C 128.636719 69.457031 128.707031 69.375 128.789062 69.277344 C 128.984375 69.042969 129.148438 68.796875 129.308594 68.535156 C 129.34375 68.476562 129.382812 68.417969 129.421875 68.359375 C 130.410156 66.789062 130.621094 64.695312 130.222656 62.914062 C 129.945312 61.738281 129.421875 60.589844 128.597656 59.699219 C 128.546875 59.636719 128.546875 59.636719 128.546875 59.554688 C 128.519531 59.554688 128.492188 59.554688 128.464844 59.554688 C 128.40625 59.492188 128.40625 59.492188 128.335938 59.40625 C 128.246094 59.300781 128.15625 59.207031 128.046875 59.117188 C 128.011719 59.089844 127.980469 59.0625 127.945312 59.03125 C 127.945312 59.003906 127.945312 58.980469 127.945312 58.953125 C 127.917969 58.941406 127.894531 58.929688 127.871094 58.917969 C 127.78125 58.871094 127.78125 58.871094 127.664062 58.789062 C 127.664062 58.765625 127.664062 58.738281 127.664062 58.710938 C 127.640625 58.699219 127.617188 58.691406 127.597656 58.679688 C 127.480469 58.617188 127.378906 58.542969 127.273438 58.46875 C 125.59375 57.292969 123.558594 56.855469 121.539062 57.199219 C 120.269531 57.429688 118.992188 58.015625 118.046875 58.902344 C 117.984375 58.953125 117.984375 58.953125 117.902344 58.953125 C 117.902344 58.976562 117.902344 59.003906 117.902344 59.03125 C 117.839844 59.09375 117.839844 59.09375 117.757812 59.164062 C 117.648438 59.253906 117.554688 59.34375 117.46875 59.453125 C 117.4375 59.488281 117.410156 59.519531 117.382812 59.554688 C 117.355469 59.554688 117.328125 59.554688 117.300781 59.554688 C 117.285156 59.59375 117.285156 59.59375 117.265625 59.628906 C 117.222656 59.71875 117.222656 59.71875 117.140625 59.839844 C 117.113281 59.839844 117.089844 59.839844 117.0625 59.839844 C 117.050781 59.859375 117.042969 59.882812 117.03125 59.902344 C 116.953125 60.046875 116.859375 60.179688 116.761719 60.3125 C 116.628906 60.503906 116.519531 60.703125 116.417969 60.917969 C 116.320312 61.027344 116.257812 61.027344 116.113281 61.042969 C 115.929688 61.054688 115.746094 61.054688 115.5625 61.054688 C 115.515625 61.054688 115.472656 61.054688 115.425781 61.054688 C 115.277344 61.054688 115.125 61.054688 114.976562 61.054688 C 114.867188 61.054688 114.757812 61.054688 114.652344 61.054688 C 114.390625 61.054688 114.125 61.054688 113.863281 61.054688 C 113.652344 61.054688 113.4375 61.054688 113.226562 61.054688 C 113.195312 61.054688 113.164062 61.054688 113.132812 61.054688 C 113.070312 61.054688 113.007812 61.054688 112.949219 61.054688 C 112.371094 61.054688 111.792969 61.054688 111.214844 61.054688 C 110.71875 61.054688 110.222656 61.054688 109.726562 61.054688 C 109.148438 61.054688 108.574219 61.054688 107.996094 61.054688 C 107.9375 61.054688 107.875 61.054688 107.8125 61.054688 C 107.785156 61.054688 107.753906 61.054688 107.722656 61.054688 C 107.507812 61.054688 107.296875 61.054688 107.082031 61.054688 C 106.824219 61.054688 106.5625 61.054688 106.304688 61.054688 C 106.171875 61.054688 106.039062 61.054688 105.90625 61.054688 C 105.765625 61.054688 105.621094 61.054688 105.476562 61.054688 C 105.414062 61.054688 105.414062 61.054688 105.347656 61.054688 C 105.3125 61.054688 105.273438 61.054688 105.234375 61.054688 C 105.199219 61.054688 105.167969 61.054688 105.132812 61.054688 C 105.054688 61.046875 105.054688 61.046875 104.972656 61.007812 C 104.988281 50.734375 105 40.464844 105.011719 29.878906 Z M 105.011719 29.878906 "/>
<path style=" stroke:none;fill-rule:nonzero;fill:rgb(87.058824%,33.333334%,7.843138%);fill-opacity:1;" d="M 39.144531 29.867188 C 39.1875 29.867188 39.1875 29.867188 39.234375 29.867188 C 40.175781 29.867188 41.109375 29.894531 42.046875 30 C 42.105469 30.007812 42.164062 30.011719 42.222656 30.019531 C 42.640625 30.0625 43.058594 30.121094 43.472656 30.195312 C 43.503906 30.199219 43.535156 30.203125 43.566406 30.210938 C 44.3125 30.335938 45.050781 30.464844 45.777344 30.679688 C 45.933594 30.722656 46.089844 30.761719 46.25 30.800781 C 46.910156 30.960938 47.554688 31.179688 48.191406 31.410156 C 48.230469 31.425781 48.269531 31.441406 48.3125 31.453125 C 48.539062 31.535156 48.761719 31.625 48.980469 31.71875 C 49.128906 31.78125 49.277344 31.835938 49.425781 31.890625 C 49.953125 32.085938 50.457031 32.324219 50.960938 32.582031 C 51.007812 32.605469 51.058594 32.628906 51.105469 32.652344 C 51.359375 32.777344 51.609375 32.910156 51.859375 33.046875 C 51.929688 33.085938 52 33.125 52.070312 33.160156 C 52.3125 33.292969 52.550781 33.433594 52.785156 33.574219 C 52.9375 33.667969 53.089844 33.753906 53.246094 33.839844 C 53.40625 33.925781 53.546875 34.019531 53.6875 34.132812 C 53.769531 34.191406 53.851562 34.238281 53.941406 34.285156 C 54.128906 34.390625 54.296875 34.511719 54.464844 34.644531 C 54.492188 34.667969 54.523438 34.691406 54.554688 34.714844 C 54.613281 34.761719 54.671875 34.804688 54.730469 34.851562 C 54.855469 34.949219 54.976562 35.046875 55.101562 35.140625 C 55.144531 35.171875 55.183594 35.203125 55.226562 35.238281 C 55.453125 35.417969 55.453125 35.417969 55.699219 35.566406 C 55.699219 35.589844 55.699219 35.617188 55.699219 35.644531 C 55.722656 35.648438 55.746094 35.652344 55.769531 35.65625 C 55.875 35.691406 55.929688 35.734375 56.011719 35.8125 C 56.039062 35.835938 56.066406 35.863281 56.097656 35.890625 C 56.125 35.914062 56.152344 35.941406 56.179688 35.96875 C 56.230469 36.011719 56.28125 36.054688 56.328125 36.097656 C 56.355469 36.121094 56.382812 36.144531 56.410156 36.167969 C 56.480469 36.230469 56.554688 36.292969 56.625 36.355469 C 56.863281 36.550781 57.089844 36.753906 57.304688 36.976562 C 57.378906 37.050781 57.457031 37.121094 57.539062 37.1875 C 57.652344 37.28125 57.738281 37.382812 57.828125 37.5 C 57.867188 37.527344 57.90625 37.554688 57.949219 37.582031 C 58.015625 37.648438 58.082031 37.714844 58.148438 37.78125 C 58.191406 37.816406 58.234375 37.851562 58.277344 37.886719 C 58.390625 37.984375 58.390625 37.984375 58.421875 38.054688 C 58.496094 38.191406 58.605469 38.289062 58.71875 38.398438 C 58.765625 38.445312 58.8125 38.492188 58.859375 38.539062 C 58.882812 38.558594 58.90625 38.582031 58.929688 38.605469 C 59.007812 38.6875 59.085938 38.765625 59.164062 38.851562 C 59.183594 38.875 59.203125 38.898438 59.226562 38.921875 C 59.285156 39.011719 59.304688 39.085938 59.3125 39.195312 C 59.238281 39.300781 59.238281 39.300781 59.179688 39.359375 C 59.097656 39.453125 59.023438 39.546875 58.945312 39.640625 C 58.8125 39.804688 58.679688 39.960938 58.546875 40.121094 C 58.363281 40.34375 58.195312 40.570312 58.027344 40.804688 C 58.003906 40.839844 58.003906 40.839844 57.980469 40.875 C 57.773438 41.148438 57.773438 41.148438 57.625 41.453125 C 57.597656 41.480469 57.566406 41.511719 57.535156 41.542969 C 57.414062 41.664062 57.328125 41.792969 57.234375 41.941406 C 57.21875 41.964844 57.203125 41.992188 57.1875 42.015625 C 57.121094 42.121094 57.0625 42.21875 57.023438 42.339844 C 57 42.339844 56.972656 42.339844 56.945312 42.339844 C 56.941406 42.359375 56.9375 42.382812 56.933594 42.402344 C 56.894531 42.53125 56.832031 42.636719 56.761719 42.753906 C 56.742188 42.792969 56.742188 42.792969 56.722656 42.828125 C 56.644531 42.960938 56.5625 43.097656 56.484375 43.230469 C 56.46875 43.253906 56.453125 43.28125 56.433594 43.308594 C 56.402344 43.363281 56.371094 43.414062 56.339844 43.464844 C 56.261719 43.597656 56.191406 43.726562 56.140625 43.871094 C 56.113281 43.871094 56.089844 43.871094 56.0625 43.871094 C 56.054688 43.914062 56.054688 43.914062 56.046875 43.957031 C 56.019531 44.082031 55.972656 44.167969 55.910156 44.277344 C 55.828125 44.429688 55.75 44.578125 55.683594 44.734375 C 55.585938 44.949219 55.476562 45.15625 55.359375 45.359375 C 55.300781 45.480469 55.257812 45.597656 55.21875 45.726562 C 55.1875 45.800781 55.15625 45.875 55.125 45.949219 C 55.035156 46.164062 54.949219 46.382812 54.867188 46.601562 C 54.828125 46.703125 54.785156 46.804688 54.738281 46.90625 C 54.652344 47.097656 54.582031 47.296875 54.515625 47.496094 C 54.488281 47.566406 54.464844 47.636719 54.441406 47.707031 C 54.429688 47.742188 54.417969 47.777344 54.40625 47.8125 C 54.332031 48.023438 54.253906 48.234375 54.175781 48.445312 C 54.078125 48.710938 54 48.976562 53.933594 49.25 C 53.871094 49.5 53.808594 49.746094 53.722656 49.988281 C 53.640625 50.214844 53.601562 50.445312 53.570312 50.683594 C 53.542969 50.683594 53.519531 50.683594 53.492188 50.683594 C 53.492188 50.726562 53.492188 50.765625 53.496094 50.808594 C 53.492188 50.972656 53.460938 51.117188 53.421875 51.273438 C 53.253906 51.945312 53.152344 52.628906 53.0625 53.3125 C 53.046875 53.429688 53.03125 53.542969 53.015625 53.660156 C 52.949219 54.171875 52.894531 54.6875 52.847656 55.203125 C 52.835938 55.203125 52.820312 55.203125 52.808594 55.203125 C 52.804688 55.171875 52.804688 55.140625 52.800781 55.105469 C 52.609375 52.898438 51.992188 50.753906 50.796875 48.875 C 50.71875 48.75 50.71875 48.75 50.71875 48.667969 C 50.691406 48.667969 50.667969 48.667969 50.640625 48.667969 C 50.574219 48.578125 50.511719 48.488281 50.453125 48.390625 C 50.4375 48.367188 50.421875 48.339844 50.402344 48.3125 C 50.277344 48.117188 50.277344 48.117188 50.277344 48.023438 C 50.25 48.023438 50.226562 48.023438 50.199219 48.023438 C 50.144531 47.949219 50.09375 47.871094 50.042969 47.792969 C 49.933594 47.621094 49.824219 47.480469 49.675781 47.339844 C 49.613281 47.273438 49.554688 47.203125 49.492188 47.136719 C 49.460938 47.105469 49.433594 47.070312 49.402344 47.035156 C 49.316406 46.9375 49.234375 46.835938 49.152344 46.734375 C 49.105469 46.675781 49.058594 46.617188 49.007812 46.558594 C 48.984375 46.53125 48.960938 46.503906 48.9375 46.476562 C 48.878906 46.402344 48.878906 46.402344 48.792969 46.410156 C 48.769531 46.367188 48.769531 46.367188 48.746094 46.324219 C 48.664062 46.199219 48.578125 46.121094 48.460938 46.027344 C 48.390625 45.96875 48.390625 45.96875 48.28125 45.855469 C 48.199219 45.773438 48.132812 45.734375 48.027344 45.683594 C 47.988281 45.644531 47.949219 45.605469 47.910156 45.566406 C 47.835938 45.5 47.761719 45.441406 47.6875 45.378906 C 47.648438 45.347656 47.609375 45.3125 47.570312 45.28125 C 47.46875 45.195312 47.46875 45.195312 47.347656 45.160156 C 47.292969 45.109375 47.238281 45.054688 47.1875 45 C 47.105469 44.941406 47.019531 44.882812 46.9375 44.824219 C 46.914062 44.808594 46.890625 44.792969 46.867188 44.777344 C 46.820312 44.742188 46.773438 44.710938 46.726562 44.679688 C 46.671875 44.640625 46.617188 44.601562 46.558594 44.5625 C 46.386719 44.445312 46.21875 44.351562 46.019531 44.273438 C 46.019531 44.246094 46.019531 44.222656 46.019531 44.195312 C 45.902344 44.152344 45.78125 44.113281 45.660156 44.074219 C 45.660156 44.046875 45.660156 44.019531 45.660156 43.992188 C 45.632812 43.988281 45.605469 43.984375 45.574219 43.980469 C 45.441406 43.949219 45.335938 43.894531 45.210938 43.835938 C 45.164062 43.808594 45.113281 43.785156 45.066406 43.761719 C 45.039062 43.75 45.015625 43.738281 44.988281 43.722656 C 44.515625 43.484375 44.039062 43.269531 43.53125 43.105469 C 43.496094 43.09375 43.464844 43.082031 43.429688 43.070312 C 41.386719 42.398438 39.070312 42.1875 36.945312 42.539062 C 36.917969 42.542969 36.890625 42.550781 36.863281 42.554688 C 35.460938 42.789062 34.160156 43.183594 32.882812 43.820312 C 32.839844 43.84375 32.792969 43.867188 32.75 43.886719 C 32.710938 43.910156 32.667969 43.929688 32.628906 43.949219 C 32.527344 43.992188 32.527344 43.992188 32.40625 43.992188 C 32.40625 44.019531 32.40625 44.046875 32.40625 44.074219 C 32.289062 44.113281 32.167969 44.152344 32.046875 44.195312 C 32.046875 44.21875 32.046875 44.246094 32.046875 44.273438 C 32.011719 44.289062 32.011719 44.289062 31.980469 44.304688 C 31.539062 44.511719 31.027344 44.8125 30.679688 45.160156 C 30.628906 45.199219 30.578125 45.238281 30.527344 45.277344 C 30.304688 45.441406 30.304688 45.441406 30.097656 45.628906 C 30.039062 45.683594 30.039062 45.683594 29.941406 45.742188 C 29.820312 45.816406 29.738281 45.90625 29.636719 46.007812 C 29.554688 46.082031 29.46875 46.152344 29.386719 46.222656 C 29.308594 46.292969 29.308594 46.292969 29.234375 46.410156 C 29.191406 46.449219 29.144531 46.488281 29.097656 46.523438 C 28.96875 46.636719 28.886719 46.75 28.792969 46.894531 C 28.742188 46.949219 28.6875 47 28.636719 47.054688 C 28.511719 47.171875 28.414062 47.292969 28.316406 47.4375 C 28.269531 47.5 28.269531 47.5 28.171875 47.597656 C 28.0625 47.710938 27.992188 47.824219 27.914062 47.960938 C 27.898438 47.980469 27.886719 48.003906 27.871094 48.023438 C 27.84375 48.023438 27.816406 48.023438 27.789062 48.023438 C 27.777344 48.050781 27.769531 48.082031 27.757812 48.109375 C 27.703125 48.234375 27.640625 48.34375 27.570312 48.460938 C 27.53125 48.519531 27.53125 48.519531 27.496094 48.578125 C 27.472656 48.609375 27.449219 48.640625 27.429688 48.667969 C 27.402344 48.667969 27.375 48.667969 27.347656 48.667969 C 27.339844 48.695312 27.328125 48.722656 27.320312 48.75 C 27.253906 48.902344 27.167969 49.039062 27.085938 49.179688 C 26.878906 49.523438 26.710938 49.875 26.542969 50.238281 C 26.492188 50.34375 26.4375 50.445312 26.382812 50.550781 C 25.703125 51.90625 25.433594 53.46875 25.257812 54.960938 C 25.246094 54.960938 25.234375 54.960938 25.21875 54.960938 C 25.214844 54.265625 25.214844 53.574219 25.210938 52.878906 C 25.210938 52.792969 25.210938 52.710938 25.210938 52.625 C 25.203125 51.210938 25.199219 49.796875 25.195312 48.382812 C 25.195312 48.285156 25.195312 48.183594 25.195312 48.085938 C 25.191406 47.523438 25.191406 46.960938 25.1875 46.398438 C 25.183594 44.847656 25.179688 43.300781 25.167969 41.75 C 25.167969 41.601562 25.167969 41.453125 25.167969 41.304688 C 25.167969 41.257812 25.167969 41.257812 25.164062 41.214844 C 25.164062 40.78125 25.160156 40.351562 25.160156 39.921875 C 25.160156 39.894531 25.160156 39.863281 25.160156 39.835938 C 25.15625 39.5625 25.15625 39.285156 25.15625 39.011719 C 25.152344 38.398438 25.148438 37.789062 25.144531 37.179688 C 25.140625 36.78125 25.140625 36.382812 25.140625 35.988281 C 25.140625 35.757812 25.136719 35.53125 25.136719 35.304688 C 25.132812 35.097656 25.132812 34.890625 25.132812 34.683594 C 25.132812 34.609375 25.132812 34.535156 25.128906 34.457031 C 25.121094 33.902344 25.121094 33.902344 25.265625 33.726562 C 25.371094 33.652344 25.464844 33.597656 25.582031 33.546875 C 25.621094 33.523438 25.664062 33.496094 25.703125 33.46875 C 25.753906 33.4375 25.753906 33.4375 25.800781 33.410156 C 25.835938 33.390625 25.867188 33.371094 25.902344 33.347656 C 25.980469 33.304688 25.980469 33.304688 26.0625 33.304688 C 26.082031 33.285156 26.101562 33.265625 26.121094 33.246094 C 26.144531 33.226562 26.164062 33.207031 26.183594 33.183594 C 26.210938 33.183594 26.234375 33.183594 26.261719 33.183594 C 26.304688 33.144531 26.304688 33.144531 26.34375 33.105469 C 26.488281 33.019531 26.636719 32.941406 26.785156 32.863281 C 26.84375 32.832031 26.84375 32.832031 26.898438 32.800781 C 26.933594 32.785156 26.96875 32.765625 27.007812 32.746094 C 27.039062 32.730469 27.070312 32.714844 27.101562 32.695312 C 27.1875 32.660156 27.1875 32.660156 27.308594 32.660156 C 27.320312 32.632812 27.335938 32.609375 27.347656 32.582031 C 27.414062 32.542969 27.414062 32.542969 27.5 32.5 C 27.535156 32.484375 27.566406 32.46875 27.597656 32.453125 C 27.632812 32.4375 27.667969 32.421875 27.703125 32.40625 C 27.738281 32.390625 27.769531 32.375 27.808594 32.355469 C 28.066406 32.238281 28.328125 32.125 28.59375 32.015625 C 28.675781 31.980469 28.757812 31.949219 28.839844 31.914062 C 29.019531 31.835938 29.199219 31.765625 29.378906 31.691406 C 29.507812 31.640625 29.628906 31.582031 29.753906 31.527344 C 29.835938 31.492188 29.835938 31.492188 29.933594 31.472656 C 30.054688 31.449219 30.160156 31.40625 30.273438 31.359375 C 30.769531 31.167969 31.273438 31.015625 31.785156 30.875 C 31.859375 30.855469 31.933594 30.832031 32.007812 30.808594 C 32.375 30.703125 32.742188 30.613281 33.117188 30.527344 C 33.144531 30.523438 33.175781 30.515625 33.207031 30.507812 C 34.503906 30.21875 35.824219 30.015625 37.144531 29.917969 C 37.195312 29.914062 37.242188 29.914062 37.289062 29.910156 C 37.90625 29.867188 38.527344 29.871094 39.144531 29.867188 Z M 39.144531 29.867188 "/>
<path style=" stroke:none;fill-rule:nonzero;fill:rgb(73.333335%,23.529412%,5.490196%);fill-opacity:1;" d="M 60.4375 71.492188 C 60.464844 71.492188 60.492188 71.492188 60.519531 71.492188 C 60.457031 71.699219 60.324219 71.84375 60.191406 72.007812 C 60.140625 72.0625 60.09375 72.121094 60.046875 72.179688 C 60.023438 72.207031 60.003906 72.234375 59.980469 72.261719 C 59.878906 72.382812 59.785156 72.511719 59.691406 72.636719 C 59.636719 72.703125 59.636719 72.703125 59.515625 72.78125 C 59.667969 72.457031 59.90625 72.171875 60.128906 71.890625 C 60.152344 71.863281 60.171875 71.835938 60.195312 71.808594 C 60.246094 71.742188 60.300781 71.675781 60.359375 71.613281 C 60.382812 71.613281 60.410156 71.613281 60.4375 71.613281 C 60.4375 71.574219 60.4375 71.53125 60.4375 71.492188 Z M 60.4375 71.492188 "/>
<path style=" stroke:none;fill-rule:nonzero;fill:rgb(74.117649%,24.313726%,5.490196%);fill-opacity:1;" d="M 65.496094 57.175781 C 65.511719 57.175781 65.523438 57.175781 65.539062 57.175781 C 65.589844 57.378906 65.613281 57.613281 65.558594 57.8125 C 65.535156 57.917969 65.523438 58.015625 65.515625 58.121094 C 65.511719 58.164062 65.507812 58.203125 65.507812 58.246094 C 65.503906 58.289062 65.5 58.332031 65.496094 58.378906 C 65.492188 58.421875 65.488281 58.464844 65.484375 58.507812 C 65.476562 58.617188 65.464844 58.722656 65.457031 58.832031 C 65.445312 58.832031 65.429688 58.832031 65.417969 58.832031 C 65.410156 58.453125 65.429688 58.082031 65.457031 57.710938 C 65.464844 57.632812 65.464844 57.632812 65.46875 57.554688 C 65.480469 57.429688 65.488281 57.300781 65.496094 57.175781 Z M 65.496094 57.175781 "/>
<path style=" stroke:none;fill-rule:nonzero;fill:rgb(76.078433%,25.490198%,5.882353%);fill-opacity:1;" d="M 62.929688 67.417969 C 62.941406 67.445312 62.953125 67.472656 62.96875 67.5 C 62.925781 67.597656 62.878906 67.691406 62.828125 67.789062 C 62.816406 67.8125 62.804688 67.839844 62.789062 67.867188 C 62.753906 67.933594 62.722656 68 62.6875 68.066406 C 62.65625 68 62.65625 68 62.648438 67.902344 C 62.703125 67.78125 62.703125 67.78125 62.785156 67.652344 C 62.8125 67.609375 62.835938 67.5625 62.863281 67.519531 C 62.886719 67.488281 62.90625 67.453125 62.929688 67.417969 Z M 62.929688 67.417969 "/>
<path style=" stroke:none;fill-rule:nonzero;fill:rgb(76.47059%,25.882354%,5.882353%);fill-opacity:1;" d="M 63.488281 66.167969 C 63.542969 66.328125 63.503906 66.371094 63.433594 66.519531 C 63.414062 66.558594 63.394531 66.601562 63.375 66.640625 C 63.351562 66.6875 63.351562 66.6875 63.328125 66.734375 C 63.316406 66.734375 63.304688 66.734375 63.289062 66.734375 C 63.308594 66.503906 63.367188 66.363281 63.488281 66.167969 Z M 63.488281 66.167969 "/>
<path style=" stroke:none;fill-rule:nonzero;fill:rgb(77.64706%,26.666668%,6.27451%);fill-opacity:1;" d="M 63.769531 65.484375 C 63.820312 65.632812 63.792969 65.671875 63.734375 65.8125 C 63.71875 65.851562 63.703125 65.886719 63.6875 65.925781 C 63.667969 65.964844 63.667969 65.964844 63.652344 66.007812 C 63.597656 65.839844 63.636719 65.730469 63.691406 65.566406 C 63.71875 65.566406 63.742188 65.566406 63.769531 65.566406 C 63.769531 65.539062 63.769531 65.511719 63.769531 65.484375 Z M 63.769531 65.484375 "/>
<path style=" stroke:none;fill-rule:nonzero;fill:rgb(100%,42.745098%,10.196079%);fill-opacity:1;" d="M 174.085938 38.910156 C 174.113281 38.925781 174.136719 38.9375 174.164062 38.953125 C 174.085938 38.992188 174.085938 38.992188 174.003906 39.03125 C 174.03125 38.992188 174.058594 38.953125 174.085938 38.910156 Z M 174.085938 38.910156 "/>
<path style=" stroke:none;fill-rule:nonzero;fill:rgb(100%,42.745098%,10.196079%);fill-opacity:1;" d="M 135.171875 38.910156 C 135.199219 38.925781 135.226562 38.9375 135.253906 38.953125 C 135.171875 38.992188 135.171875 38.992188 135.09375 39.03125 C 135.117188 38.992188 135.144531 38.953125 135.171875 38.910156 Z M 135.171875 38.910156 "/>
</g>
</svg>
